<svg width="24" height="24" viewBox="0 0 24 24" fill="none" xmlns="http://www.w3.org/2000/svg">
<g clip-path="url(#clip0_13_973)">
<path d="M0 24V0H18L24 6V24H0Z" fill="#3F3F26"/>
<path d="M10.608 11H11.508V17H10.608V16.58C10.008 16.94 9.416 17.12 8.832 17.12C8.016 17.12 7.472 16.908 7.2 16.484C6.936 16.06 6.804 15.276 6.804 14.132V11H7.704V14.12C7.704 14.992 7.78 15.576 7.932 15.872C8.084 16.168 8.428 16.316 8.964 16.316C9.228 16.316 9.496 16.28 9.768 16.208C10.04 16.128 10.248 16.052 10.392 15.98L10.608 15.872V11Z" fill="#DBEB00"/>
<path d="M13.959 17V11H14.859V17H13.959ZM13.959 9.644V8.6H14.859V9.644H13.959Z" fill="#DBEB00"/>
<path d="M10.608 11H11.508V17H10.608V16.58C10.008 16.94 9.416 17.12 8.832 17.12C8.016 17.12 7.472 16.908 7.2 16.484C6.936 16.06 6.804 15.276 6.804 14.132V11H7.704V14.12C7.704 14.992 7.78 15.576 7.932 15.872C8.084 16.168 8.428 16.316 8.964 16.316C9.228 16.316 9.496 16.28 9.768 16.208C10.04 16.128 10.248 16.052 10.392 15.98L10.608 15.872V11Z" stroke="#DBEB00" stroke-width="0.5"/>
<path d="M13.959 17V11H14.859V17H13.959ZM13.959 9.644V8.6H14.859V9.644H13.959Z" stroke="#DBEB00" stroke-width="0.5"/>
</g>
<defs>
<clipPath id="clip0_13_973">
<rect width="24" height="24" fill="white"/>
</clipPath>
</defs>
</svg>
