<svg width="24" height="24" viewBox="0 0 24 24" fill="none" xmlns="http://www.w3.org/2000/svg">
<g clip-path="url(#clip0_13_1017)">
<path d="M0 24V0H18L24 6V24H0Z" fill="#2CDE85"/>
<path d="M10.608 11H11.508V17H10.608V16.58C10.008 16.94 9.416 17.12 8.832 17.12C8.016 17.12 7.472 16.908 7.2 16.484C6.936 16.06 6.804 15.276 6.804 14.132V11H7.704V14.12C7.704 14.992 7.78 15.576 7.932 15.872C8.084 16.168 8.428 16.316 8.964 16.316C9.228 16.316 9.496 16.28 9.768 16.208C10.04 16.128 10.248 16.052 10.392 15.98L10.608 15.872V11ZM13.959 17V11H14.859V17H13.959ZM13.959 9.644V8.6H14.859V9.644H13.959Z" fill="#00414A"/>
<path d="M10.608 11V10.75H10.358V11H10.608ZM11.508 11H11.758V10.75H11.508V11ZM11.508 17V17.25H11.758V17H11.508ZM10.608 17H10.358V17.25H10.608V17ZM10.608 16.58H10.858V16.1385L10.4794 16.3656L10.608 16.58ZM7.2 16.484L6.98776 16.6162L6.98958 16.619L7.2 16.484ZM6.804 11V10.75H6.554V11H6.804ZM7.704 11H7.954V10.75H7.704V11ZM7.932 15.872L8.15439 15.7578L7.932 15.872ZM9.768 16.208L9.832 16.4498L9.83854 16.4478L9.768 16.208ZM10.392 15.98L10.5038 16.2036L10.392 15.98ZM10.608 15.872L10.7198 16.0956L10.858 16.0265V15.872H10.608ZM10.608 11.25H11.508V10.75H10.608V11.25ZM11.258 11V17H11.758V11H11.258ZM11.508 16.75H10.608V17.25H11.508V16.75ZM10.858 17V16.58H10.358V17H10.858ZM10.4794 16.3656C9.91049 16.707 9.36245 16.87 8.832 16.87V17.37C9.46956 17.37 10.1055 17.173 10.7366 16.7944L10.4794 16.3656ZM8.832 16.87C8.04669 16.87 7.61324 16.6652 7.41042 16.349L6.98958 16.619C7.33076 17.1508 7.98531 17.37 8.832 17.37V16.87ZM7.41222 16.3519C7.30463 16.1791 7.21295 15.9132 7.14953 15.5365C7.0866 15.1627 7.054 14.6956 7.054 14.132H6.554C6.554 14.7124 6.5874 15.2093 6.65647 15.6195C6.72505 16.0268 6.83137 16.3649 6.98778 16.6161L7.41222 16.3519ZM7.054 14.132V11H6.554V14.132H7.054ZM6.804 11.25H7.704V10.75H6.804V11.25ZM7.454 11V14.12H7.954V11H7.454ZM7.454 14.12C7.454 14.5622 7.47321 14.9378 7.51309 15.2443C7.5524 15.5464 7.61401 15.8 7.70961 15.9862L8.15439 15.7578C8.098 15.648 8.0456 15.4616 8.00891 15.1797C7.97279 14.9022 7.954 14.5498 7.954 14.12H7.454ZM7.70961 15.9862C7.92672 16.409 8.39594 16.566 8.964 16.566V16.066C8.46006 16.066 8.24128 15.927 8.15439 15.7578L7.70961 15.9862ZM8.964 16.566C9.25097 16.566 9.54047 16.5268 9.83197 16.4497L9.70403 15.9663C9.45153 16.0332 9.20503 16.066 8.964 16.066V16.566ZM9.83854 16.4478C10.1158 16.3663 10.3402 16.2854 10.5038 16.2036L10.2802 15.7564C10.1558 15.8186 9.96421 15.8897 9.69746 15.9682L9.83854 16.4478ZM10.5038 16.2036L10.7198 16.0956L10.4962 15.6484L10.2802 15.7564L10.5038 16.2036ZM10.858 15.872V11H10.358V15.872H10.858ZM13.959 17H13.709V17.25H13.959V17ZM13.959 11V10.75H13.709V11H13.959ZM14.859 11H15.109V10.75H14.859V11ZM14.859 17V17.25H15.109V17H14.859ZM13.959 9.644H13.709V9.894H13.959V9.644ZM13.959 8.6V8.35H13.709V8.6H13.959ZM14.859 8.6H15.109V8.35H14.859V8.6ZM14.859 9.644V9.894H15.109V9.644H14.859ZM14.209 17V11H13.709V17H14.209ZM13.959 11.25H14.859V10.75H13.959V11.25ZM14.609 11V17H15.109V11H14.609ZM14.859 16.75H13.959V17.25H14.859V16.75ZM14.209 9.644V8.6H13.709V9.644H14.209ZM13.959 8.85H14.859V8.35H13.959V8.85ZM14.609 8.6V9.644H15.109V8.6H14.609ZM14.859 9.394H13.959V9.894H14.859V9.394Z" fill="#00414A"/>
</g>
<defs>
<clipPath id="clip0_13_1017">
<rect width="24" height="24" fill="white"/>
</clipPath>
</defs>
</svg>
