<svg width="24" height="24" viewBox="0 0 24 24" fill="none" xmlns="http://www.w3.org/2000/svg">
<g clip-path="url(#clip0_13_863)">
<path d="M0 24V0H18L24 6V24H0Z" fill="#DBEB00"/>
<path d="M5.856 17.12C5.048 17.12 4.468 16.884 4.116 16.412C3.772 15.94 3.6 15.14 3.6 14.012C3.6 12.884 3.808 12.08 4.224 11.6C4.64 11.12 5.376 10.88 6.432 10.88L8.436 11V19.664H7.548V16.724C6.988 16.988 6.424 17.12 5.856 17.12ZM6.444 11.66C5.692 11.66 5.18 11.848 4.908 12.224C4.644 12.6 4.512 13.2 4.512 14.024C4.512 14.84 4.62 15.428 4.836 15.788C5.06 16.14 5.432 16.316 5.952 16.316C6.416 16.316 6.876 16.228 7.332 16.052L7.548 15.968V11.732C7.052 11.684 6.684 11.66 6.444 11.66Z" fill="#3F3F26"/>
<path d="M10.9004 17V11H11.7884V11.816C12.4844 11.336 13.2164 11.02 13.9844 10.868V11.78C13.6484 11.844 13.2964 11.944 12.9284 12.08C12.5684 12.216 12.2924 12.336 12.1004 12.44L11.8004 12.596V17H10.9004Z" fill="#3F3F26"/>
<path d="M17.8957 10.88C18.1597 10.88 18.6077 10.928 19.2397 11.024L19.5277 11.06L19.4917 11.792C18.8517 11.72 18.3797 11.684 18.0757 11.684C17.3957 11.684 16.9317 11.848 16.6837 12.176C16.4437 12.496 16.3237 13.096 16.3237 13.976C16.3237 14.848 16.4357 15.456 16.6597 15.8C16.8917 16.144 17.3677 16.316 18.0877 16.316L19.5037 16.208L19.5397 16.952C18.7957 17.064 18.2397 17.12 17.8717 17.12C16.9357 17.12 16.2877 16.88 15.9277 16.4C15.5757 15.92 15.3997 15.112 15.3997 13.976C15.3997 12.832 15.5917 12.032 15.9757 11.576C16.3597 11.112 16.9997 10.88 17.8957 10.88Z" fill="#3F3F26"/>
<path d="M5.856 17.12C5.048 17.12 4.468 16.884 4.116 16.412C3.772 15.94 3.6 15.14 3.6 14.012C3.6 12.884 3.808 12.08 4.224 11.6C4.64 11.12 5.376 10.88 6.432 10.88L8.436 11V19.664H7.548V16.724C6.988 16.988 6.424 17.12 5.856 17.12ZM6.444 11.66C5.692 11.66 5.18 11.848 4.908 12.224C4.644 12.6 4.512 13.2 4.512 14.024C4.512 14.84 4.62 15.428 4.836 15.788C5.06 16.14 5.432 16.316 5.952 16.316C6.416 16.316 6.876 16.228 7.332 16.052L7.548 15.968V11.732C7.052 11.684 6.684 11.66 6.444 11.66Z" stroke="#3F3F26" stroke-width="0.5"/>
<path d="M10.9004 17V11H11.7884V11.816C12.4844 11.336 13.2164 11.02 13.9844 10.868V11.78C13.6484 11.844 13.2964 11.944 12.9284 12.08C12.5684 12.216 12.2924 12.336 12.1004 12.44L11.8004 12.596V17H10.9004Z" stroke="#3F3F26" stroke-width="0.5"/>
<path d="M17.8957 10.88C18.1597 10.88 18.6077 10.928 19.2397 11.024L19.5277 11.06L19.4917 11.792C18.8517 11.72 18.3797 11.684 18.0757 11.684C17.3957 11.684 16.9317 11.848 16.6837 12.176C16.4437 12.496 16.3237 13.096 16.3237 13.976C16.3237 14.848 16.4357 15.456 16.6597 15.8C16.8917 16.144 17.3677 16.316 18.0877 16.316L19.5037 16.208L19.5397 16.952C18.7957 17.064 18.2397 17.12 17.8717 17.12C16.9357 17.12 16.2877 16.88 15.9277 16.4C15.5757 15.92 15.3997 15.112 15.3997 13.976C15.3997 12.832 15.5917 12.032 15.9757 11.576C16.3597 11.112 16.9997 10.88 17.8957 10.88Z" stroke="#3F3F26" stroke-width="0.5"/>
</g>
<defs>
<clipPath id="clip0_13_863">
<rect width="24" height="24" fill="white"/>
</clipPath>
</defs>
</svg>
