<?xml version="1.0" encoding="UTF-8"?>
<!DOCTYPE svg PUBLIC "-//W3C//DTD SVG 1.1//EN" "http://www.w3.org/Graphics/SVG/1.1/DTD/svg11.dtd">
<svg xmlns="http://www.w3.org/2000/svg" version="1.1" width="128px" height="128px" style="shape-rendering:geometricPrecision; text-rendering:geometricPrecision; image-rendering:optimizeQuality; fill-rule:evenodd; clip-rule:evenodd" xmlns:xlink="http://www.w3.org/1999/xlink">
<g><path style="opacity:1" fill="#c6c6c6" d="M 113.5,39.5 C 112.18,56.1369 112.18,72.8035 113.5,89.5C 113.5,89.8333 113.5,90.1667 113.5,90.5C 112.505,101.988 112.172,113.655 112.5,125.5C 79.7601,125.174 47.0934,125.508 14.5,126.5C 13.5049,114.678 13.1716,102.678 13.5,90.5C 13.5,73.5 13.5,56.5 13.5,39.5C 13.5,26.5 13.5,13.5 13.5,0.5C 37.5023,0.333365 61.5023,0.500032 85.5,1C 94.0298,9.86406 102.863,18.3641 112,26.5C 113.367,30.6996 113.867,35.0329 113.5,39.5 Z"/></g>
<g><path style="opacity:1" fill="#f3f3f5" d="M 75.5,3.5 C 78.7766,3.21614 81.9433,3.54948 85,4.5C 86.6867,11.7727 86.8534,19.106 85.5,26.5C 92.0248,27.2834 98.6915,28.1167 105.5,29C 104.692,29.3076 104.025,29.8076 103.5,30.5C 104.648,32.1487 105.981,33.6487 107.5,35C 106.09,35.3678 105.09,36.2011 104.5,37.5C 105.5,38.8333 106.5,40.1667 107.5,41.5C 105.56,43.9695 105.894,46.4695 108.5,49C 107.328,49.4186 106.328,50.0853 105.5,51C 112.249,74.1687 104.249,90.1687 81.5,99C 70.2695,103.1 58.9362,103.434 47.5,100C 40.7964,96.3644 33.9631,93.8644 27,92.5C 26.1268,92.7355 25.2935,93.0688 24.5,93.5C 22.8333,92.1667 21.1667,90.8333 19.5,89.5C 18.5832,90.1272 17.5832,90.4606 16.5,90.5C 16.5,76.1667 16.5,61.8333 16.5,47.5C 19.3409,45.4127 22.3409,43.9127 25.5,43C 23.0039,45.6559 21.0039,48.6559 19.5,52C 21.5029,51.5808 23.5029,50.7474 25.5,49.5C 25.8333,49.8333 26.1667,50.1667 26.5,50.5C 24.8439,52.4122 24.5105,54.4122 25.5,56.5C 27.1667,54.8333 28.1667,55.1667 28.5,57.5C 26.5706,62.0742 27.404,63.0742 31,60.5C 31.1171,61.9504 30.9505,63.4504 30.5,65C 30.8333,65.8333 31.1667,66.6667 31.5,67.5C 32.4255,66.3595 33.2588,66.3595 34,67.5C 34.49,68.7932 34.6567,70.1266 34.5,71.5C 35.9587,71.4326 37.2921,71.7659 38.5,72.5C 40.5863,84.9028 47.0863,87.9028 58,81.5C 58.4828,82.448 58.6495,83.448 58.5,84.5C 62.1667,84.5 65.8333,84.5 69.5,84.5C 69.5,74.1667 69.5,63.8333 69.5,53.5C 70.1666,62.6753 70.8333,72.0086 71.5,81.5C 72.7481,80.9598 73.9148,80.2931 75,79.5C 75.1704,70.657 75.6704,61.9903 76.5,53.5C 76.5,63.8333 76.5,74.1667 76.5,84.5C 80.1667,84.5 83.8333,84.5 87.5,84.5C 87.5,74.1667 87.5,63.8333 87.5,53.5C 84.1667,53.5 80.8333,53.5 77.5,53.5C 77.5,52.8333 77.5,52.1667 77.5,51.5C 80.8333,51.5 84.1667,51.5 87.5,51.5C 87.5,48.5 87.5,45.5 87.5,42.5C 83.8333,42.5 80.1667,42.5 76.5,42.5C 76.5,45.1667 76.5,47.8333 76.5,50.5C 75.7986,47.4371 75.132,44.2704 74.5,41C 74.8333,40.6667 75.1667,40.3333 75.5,40C 73.7148,38.8372 71.7148,38.1705 69.5,38C 68.3659,36.984 68.6992,36.3173 70.5,36C 67.6229,34.8732 64.6229,34.2065 61.5,34C 63.3325,33.2515 64.9991,32.2515 66.5,31C 62.8061,30.7221 59.1394,30.7221 55.5,31C 57.5,29.6667 59.5,28.3333 61.5,27C 57.4695,26.6743 53.4695,26.6743 49.5,27C 53.5,24.6667 57.5,22.3333 61.5,20C 56.8138,20.2418 52.1471,20.5752 47.5,21C 57.0657,15.392 66.399,9.55871 75.5,3.5 Z"/></g>
<g><path style="opacity:1" fill="#f8f9fa" d="M 75.5,3.5 C 66.399,9.55871 57.0657,15.392 47.5,21C 52.1471,20.5752 56.8138,20.2418 61.5,20C 57.5,22.3333 53.5,24.6667 49.5,27C 53.4695,26.6743 57.4695,26.6743 61.5,27C 59.5,28.3333 57.5,29.6667 55.5,31C 59.1394,30.7221 62.8061,30.7221 66.5,31C 64.9991,32.2515 63.3325,33.2515 61.5,34C 64.6229,34.2065 67.6229,34.8732 70.5,36C 68.6992,36.3173 68.3659,36.984 69.5,38C 71.7148,38.1705 73.7148,38.8372 75.5,40C 75.1667,40.3333 74.8333,40.6667 74.5,41C 75.132,44.2704 75.7986,47.4371 76.5,50.5C 76.5,51.1667 76.8333,51.5 77.5,51.5C 77.5,52.1667 77.5,52.8333 77.5,53.5C 77.1667,53.5 76.8333,53.5 76.5,53.5C 75.6704,61.9903 75.1704,70.657 75,79.5C 73.9148,80.2931 72.7481,80.9598 71.5,81.5C 70.8333,72.0086 70.1666,62.6753 69.5,53.5C 65.8333,53.5 62.1667,53.5 58.5,53.5C 58.6662,59.5092 58.4995,65.5092 58,71.5C 56.7413,75.2233 54.4079,76.2233 51,74.5C 50.5004,67.5079 50.3337,60.5079 50.5,53.5C 46.5,53.5 42.5,53.5 38.5,53.5C 38.5,59.8333 38.5,66.1667 38.5,72.5C 37.2921,71.7659 35.9587,71.4326 34.5,71.5C 34.6567,70.1266 34.49,68.7932 34,67.5C 33.2588,66.3595 32.4255,66.3595 31.5,67.5C 31.1667,66.6667 30.8333,65.8333 30.5,65C 30.9505,63.4504 31.1171,61.9504 31,60.5C 27.404,63.0742 26.5706,62.0742 28.5,57.5C 28.1667,55.1667 27.1667,54.8333 25.5,56.5C 24.5105,54.4122 24.8439,52.4122 26.5,50.5C 26.1667,50.1667 25.8333,49.8333 25.5,49.5C 23.5029,50.7474 21.5029,51.5808 19.5,52C 21.0039,48.6559 23.0039,45.6559 25.5,43C 22.3409,43.9127 19.3409,45.4127 16.5,47.5C 16.5,32.8333 16.5,18.1667 16.5,3.5C 36.1667,3.5 55.8333,3.5 75.5,3.5 Z"/></g>
<g><path style="opacity:1" fill="#ececed" d="M 88.5,8.5 C 94.3299,14.1623 100.33,19.6623 106.5,25C 100.212,24.6825 93.8789,24.5158 87.5,24.5C 88.2745,19.2032 88.6079,13.8699 88.5,8.5 Z"/></g>
<g><path style="opacity:0.071" fill="#fefffe" d="M 13.5,39.5 C 13.5,56.5 13.5,73.5 13.5,90.5C 8.37808,82.6863 6.04475,74.0196 6.5,64.5C 5.90251,55.2082 8.23584,46.8749 13.5,39.5 Z"/></g>
<g><path style="opacity:0.07" fill="#fdfdfd" d="M 113.5,39.5 C 115.64,41.7005 117.14,44.3672 118,47.5C 121.333,58.8333 121.333,70.1667 118,81.5C 116.726,84.3911 115.226,87.0578 113.5,89.5C 112.18,72.8035 112.18,56.1369 113.5,39.5 Z"/></g>
<g><path style="opacity:1" fill="#14899c" d="M 77.5,51.5 C 76.8333,51.5 76.5,51.1667 76.5,50.5C 76.5,47.8333 76.5,45.1667 76.5,42.5C 80.1667,42.5 83.8333,42.5 87.5,42.5C 87.5,45.5 87.5,48.5 87.5,51.5C 84.1667,51.5 80.8333,51.5 77.5,51.5 Z"/></g>
<g><path style="opacity:1" fill="#e2f4f7" d="M 78.5,44.5 C 80.8333,44.5 83.1667,44.5 85.5,44.5C 85.5,46.1667 85.5,47.8333 85.5,49.5C 83.1667,49.5 80.8333,49.5 78.5,49.5C 78.5,47.8333 78.5,46.1667 78.5,44.5 Z"/></g>
<g><path style="opacity:1" fill="#238c9f" d="M 69.5,53.5 C 69.5,63.8333 69.5,74.1667 69.5,84.5C 65.8333,84.5 62.1667,84.5 58.5,84.5C 58.6495,83.448 58.4828,82.448 58,81.5C 47.0863,87.9028 40.5863,84.9028 38.5,72.5C 38.5,66.1667 38.5,59.8333 38.5,53.5C 42.5,53.5 46.5,53.5 50.5,53.5C 50.3337,60.5079 50.5004,67.5079 51,74.5C 54.4079,76.2233 56.7413,75.2233 58,71.5C 58.4995,65.5092 58.6662,59.5092 58.5,53.5C 62.1667,53.5 65.8333,53.5 69.5,53.5 Z"/></g>
<g><path style="opacity:1" fill="#12879a" d="M 76.5,53.5 C 76.8333,53.5 77.1667,53.5 77.5,53.5C 80.8333,53.5 84.1667,53.5 87.5,53.5C 87.5,63.8333 87.5,74.1667 87.5,84.5C 83.8333,84.5 80.1667,84.5 76.5,84.5C 76.5,74.1667 76.5,63.8333 76.5,53.5 Z"/></g>
<g><path style="opacity:1" fill="#85d3df" d="M 67.5,66.5 C 65.1667,66.5 62.8333,66.5 60.5,66.5C 60.5,62.8333 60.5,59.1667 60.5,55.5C 62.8333,55.5 65.1667,55.5 67.5,55.5C 67.5,59.1667 67.5,62.8333 67.5,66.5 Z"/></g>
<g><path style="opacity:1" fill="#82d2de" d="M 85.5,66.5 C 83.283,67.3686 80.9496,67.702 78.5,67.5C 78.5,63.5 78.5,59.5 78.5,55.5C 80.8333,55.5 83.1667,55.5 85.5,55.5C 85.5,59.1667 85.5,62.8333 85.5,66.5 Z"/></g>
<g><path style="opacity:1" fill="#41b6c7" d="M 85.5,66.5 C 85.5,71.5 85.5,76.5 85.5,81.5C 83.1667,81.5 80.8333,81.5 78.5,81.5C 78.5,76.8333 78.5,72.1667 78.5,67.5C 80.9496,67.702 83.283,67.3686 85.5,66.5 Z"/></g>
<g><path style="opacity:1" fill="#3bafc0" d="M 60.5,66.5 C 62.8333,66.5 65.1667,66.5 67.5,66.5C 67.5,71.5 67.5,76.5 67.5,81.5C 65.1667,81.5 62.8333,81.5 60.5,81.5C 60.5,80.5 60.5,79.5 60.5,78.5C 57.2117,80.634 53.545,81.9674 49.5,82.5C 46.2089,82.7205 43.7089,81.3872 42,78.5C 40.6039,70.9196 40.1039,63.253 40.5,55.5C 42.8333,55.5 45.1667,55.5 47.5,55.5C 47.3338,61.5092 47.5005,67.5092 48,73.5C 51.1705,78.4141 54.8372,78.7475 59,74.5C 60.2525,71.9865 60.7525,69.3198 60.5,66.5 Z"/></g>
<g><path style="opacity:1" fill="#ececf0" d="M 85.5,26.5 C 93.6499,26.0623 101.65,26.729 109.5,28.5C 109.5,60.1667 109.5,91.8333 109.5,123.5C 78.5,123.5 47.5,123.5 16.5,123.5C 16.5,112.5 16.5,101.5 16.5,90.5C 17.5832,90.4606 18.5832,90.1272 19.5,89.5C 21.1667,90.8333 22.8333,92.1667 24.5,93.5C 25.2935,93.0688 26.1268,92.7355 27,92.5C 33.9631,93.8644 40.7964,96.3644 47.5,100C 58.9362,103.434 70.2695,103.1 81.5,99C 104.249,90.1687 112.249,74.1687 105.5,51C 106.328,50.0853 107.328,49.4186 108.5,49C 105.894,46.4695 105.56,43.9695 107.5,41.5C 106.5,40.1667 105.5,38.8333 104.5,37.5C 105.09,36.2011 106.09,35.3678 107.5,35C 105.981,33.6487 104.648,32.1487 103.5,30.5C 104.025,29.8076 104.692,29.3076 105.5,29C 98.6915,28.1167 92.0248,27.2834 85.5,26.5 Z"/></g>
<g><path style="opacity:1" fill="#d9d9db" d="M 109.5,28.5 C 110.498,60.329 110.832,92.329 110.5,124.5C 78.9956,124.832 47.6622,124.498 16.5,123.5C 47.5,123.5 78.5,123.5 109.5,123.5C 109.5,91.8333 109.5,60.1667 109.5,28.5 Z"/></g>
<g><path style="opacity:0.541" fill="#5a5a5a" d="M 113.5,90.5 C 113.813,102.913 113.479,115.247 112.5,127.5C 79.8333,127.5 47.1667,127.5 14.5,127.5C 14.5,127.167 14.5,126.833 14.5,126.5C 47.0934,125.508 79.7601,125.174 112.5,125.5C 112.172,113.655 112.505,101.988 113.5,90.5 Z"/></g>
</svg>
