<svg width="24" height="24" viewBox="0 0 24 24" fill="none" xmlns="http://www.w3.org/2000/svg">
<g clip-path="url(#clip0_13_907)">
<path d="M0 24V0H18L24 6V24H0Z" fill="#3F3F26"/>
<path d="M7.472 9.384V18H6.584V17.592C5.968 17.944 5.36 18.12 4.76 18.12C4.44 18.12 4.16 18.08 3.92 18C3.68 17.92 3.456 17.776 3.248 17.568C2.816 17.136 2.6 16.34 2.6 15.18C2.6 14.012 2.792 13.172 3.176 12.66C3.568 12.14 4.212 11.88 5.108 11.88C5.572 11.88 6.064 11.932 6.584 12.036V9.384H7.472ZM3.944 16.92C4.072 17.072 4.208 17.176 4.352 17.232C4.496 17.288 4.68 17.316 4.904 17.316C5.136 17.316 5.392 17.28 5.672 17.208C5.96 17.128 6.184 17.052 6.344 16.98L6.584 16.872V12.804C6.072 12.708 5.596 12.66 5.156 12.66C4.548 12.66 4.124 12.856 3.884 13.248C3.644 13.632 3.524 14.232 3.524 15.048C3.524 15.976 3.664 16.6 3.944 16.92Z" fill="#DBEB00"/>
<path d="M9.55156 14.988C9.55156 13.892 9.74756 13.1 10.1396 12.612C10.5316 12.124 11.1916 11.88 12.1196 11.88C13.0556 11.88 13.7156 12.124 14.0996 12.612C14.4916 13.1 14.6876 13.892 14.6876 14.988C14.6876 16.084 14.5036 16.88 14.1356 17.376C13.7676 17.872 13.0956 18.12 12.1196 18.12C11.1436 18.12 10.4716 17.872 10.1036 17.376C9.73556 16.88 9.55156 16.084 9.55156 14.988ZM10.4756 14.976C10.4756 15.848 10.5796 16.46 10.7876 16.812C11.0036 17.164 11.4476 17.34 12.1196 17.34C12.7996 17.34 13.2436 17.168 13.4516 16.824C13.6596 16.472 13.7636 15.856 13.7636 14.976C13.7636 14.096 13.6476 13.492 13.4156 13.164C13.1836 12.828 12.7516 12.66 12.1196 12.66C11.4956 12.66 11.0636 12.828 10.8236 13.164C10.5916 13.492 10.4756 14.096 10.4756 14.976Z" fill="#DBEB00"/>
<path d="M18.9994 11.88C19.2634 11.88 19.7114 11.928 20.3434 12.024L20.6314 12.06L20.5954 12.792C19.9554 12.72 19.4834 12.684 19.1794 12.684C18.4994 12.684 18.0354 12.848 17.7874 13.176C17.5474 13.496 17.4274 14.096 17.4274 14.976C17.4274 15.848 17.5394 16.456 17.7634 16.8C17.9954 17.144 18.4714 17.316 19.1914 17.316L20.6074 17.208L20.6434 17.952C19.8994 18.064 19.3434 18.12 18.9754 18.12C18.0394 18.12 17.3914 17.88 17.0314 17.4C16.6794 16.92 16.5034 16.112 16.5034 14.976C16.5034 13.832 16.6954 13.032 17.0794 12.576C17.4634 12.112 18.1034 11.88 18.9994 11.88Z" fill="#DBEB00"/>
<path d="M7.472 9.384V18H6.584V17.592C5.968 17.944 5.36 18.12 4.76 18.12C4.44 18.12 4.16 18.08 3.92 18C3.68 17.92 3.456 17.776 3.248 17.568C2.816 17.136 2.6 16.34 2.6 15.18C2.6 14.012 2.792 13.172 3.176 12.66C3.568 12.14 4.212 11.88 5.108 11.88C5.572 11.88 6.064 11.932 6.584 12.036V9.384H7.472ZM3.944 16.92C4.072 17.072 4.208 17.176 4.352 17.232C4.496 17.288 4.68 17.316 4.904 17.316C5.136 17.316 5.392 17.28 5.672 17.208C5.96 17.128 6.184 17.052 6.344 16.98L6.584 16.872V12.804C6.072 12.708 5.596 12.66 5.156 12.66C4.548 12.66 4.124 12.856 3.884 13.248C3.644 13.632 3.524 14.232 3.524 15.048C3.524 15.976 3.664 16.6 3.944 16.92Z" stroke="#DBEB00" stroke-width="0.5"/>
<path d="M9.55156 14.988C9.55156 13.892 9.74756 13.1 10.1396 12.612C10.5316 12.124 11.1916 11.88 12.1196 11.88C13.0556 11.88 13.7156 12.124 14.0996 12.612C14.4916 13.1 14.6876 13.892 14.6876 14.988C14.6876 16.084 14.5036 16.88 14.1356 17.376C13.7676 17.872 13.0956 18.12 12.1196 18.12C11.1436 18.12 10.4716 17.872 10.1036 17.376C9.73556 16.88 9.55156 16.084 9.55156 14.988ZM10.4756 14.976C10.4756 15.848 10.5796 16.46 10.7876 16.812C11.0036 17.164 11.4476 17.34 12.1196 17.34C12.7996 17.34 13.2436 17.168 13.4516 16.824C13.6596 16.472 13.7636 15.856 13.7636 14.976C13.7636 14.096 13.6476 13.492 13.4156 13.164C13.1836 12.828 12.7516 12.66 12.1196 12.66C11.4956 12.66 11.0636 12.828 10.8236 13.164C10.5916 13.492 10.4756 14.096 10.4756 14.976Z" stroke="#DBEB00" stroke-width="0.5"/>
<path d="M18.9994 11.88C19.2634 11.88 19.7114 11.928 20.3434 12.024L20.6314 12.06L20.5954 12.792C19.9554 12.72 19.4834 12.684 19.1794 12.684C18.4994 12.684 18.0354 12.848 17.7874 13.176C17.5474 13.496 17.4274 14.096 17.4274 14.976C17.4274 15.848 17.5394 16.456 17.7634 16.8C17.9954 17.144 18.4714 17.316 19.1914 17.316L20.6074 17.208L20.6434 17.952C19.8994 18.064 19.3434 18.12 18.9754 18.12C18.0394 18.12 17.3914 17.88 17.0314 17.4C16.6794 16.92 16.5034 16.112 16.5034 14.976C16.5034 13.832 16.6954 13.032 17.0794 12.576C17.4634 12.112 18.1034 11.88 18.9994 11.88Z" stroke="#DBEB00" stroke-width="0.5"/>
</g>
<defs>
<clipPath id="clip0_13_907">
<rect width="24" height="24" fill="white"/>
</clipPath>
</defs>
</svg>
