<svg width="24" height="24" viewBox="0 0 24 24" fill="none" xmlns="http://www.w3.org/2000/svg">
<g clip-path="url(#clip0_13_907)">
<path d="M0 24V0H18L24 6V24H0Z" fill="#00414A"/>
<path d="M7.472 9.384V18H6.584V17.592C5.968 17.944 5.36 18.12 4.76 18.12C4.44 18.12 4.16 18.08 3.92 18C3.68 17.92 3.456 17.776 3.248 17.568C2.816 17.136 2.6 16.34 2.6 15.18C2.6 14.012 2.792 13.172 3.176 12.66C3.568 12.14 4.212 11.88 5.108 11.88C5.572 11.88 6.064 11.932 6.584 12.036V9.384H7.472ZM3.944 16.92C4.072 17.072 4.208 17.176 4.352 17.232C4.496 17.288 4.68 17.316 4.904 17.316C5.136 17.316 5.392 17.28 5.672 17.208C5.96 17.128 6.184 17.052 6.344 16.98L6.584 16.872V12.804C6.072 12.708 5.596 12.66 5.156 12.66C4.548 12.66 4.124 12.856 3.884 13.248C3.644 13.632 3.524 14.232 3.524 15.048C3.524 15.976 3.664 16.6 3.944 16.92ZM9.55156 14.988C9.55156 13.892 9.74756 13.1 10.1396 12.612C10.5316 12.124 11.1916 11.88 12.1196 11.88C13.0556 11.88 13.7156 12.124 14.0996 12.612C14.4916 13.1 14.6876 13.892 14.6876 14.988C14.6876 16.084 14.5036 16.88 14.1356 17.376C13.7676 17.872 13.0956 18.12 12.1196 18.12C11.1436 18.12 10.4716 17.872 10.1036 17.376C9.73556 16.88 9.55156 16.084 9.55156 14.988ZM10.4756 14.976C10.4756 15.848 10.5796 16.46 10.7876 16.812C11.0036 17.164 11.4476 17.34 12.1196 17.34C12.7996 17.34 13.2436 17.168 13.4516 16.824C13.6596 16.472 13.7636 15.856 13.7636 14.976C13.7636 14.096 13.6476 13.492 13.4156 13.164C13.1836 12.828 12.7516 12.66 12.1196 12.66C11.4956 12.66 11.0636 12.828 10.8236 13.164C10.5916 13.492 10.4756 14.096 10.4756 14.976ZM18.9994 11.88C19.2634 11.88 19.7114 11.928 20.3434 12.024L20.6314 12.06L20.5954 12.792C19.9554 12.72 19.4834 12.684 19.1794 12.684C18.4994 12.684 18.0354 12.848 17.7874 13.176C17.5474 13.496 17.4274 14.096 17.4274 14.976C17.4274 15.848 17.5394 16.456 17.7634 16.8C17.9954 17.144 18.4714 17.316 19.1914 17.316L20.6074 17.208L20.6434 17.952C19.8994 18.064 19.3434 18.12 18.9754 18.12C18.0394 18.12 17.3914 17.88 17.0314 17.4C16.6794 16.92 16.5034 16.112 16.5034 14.976C16.5034 13.832 16.6954 13.032 17.0794 12.576C17.4634 12.112 18.1034 11.88 18.9994 11.88Z" fill="#2CDE85"/>
<path d="M7.472 9.384H7.722V9.134H7.472V9.384ZM7.472 18V18.25H7.722V18H7.472ZM6.584 18H6.334V18.25H6.584V18ZM6.584 17.592H6.834V17.1612L6.45997 17.3749L6.584 17.592ZM3.248 17.568L3.07122 17.7448L3.248 17.568ZM3.176 12.66L2.97637 12.5095L2.976 12.51L3.176 12.66ZM6.584 12.036L6.53497 12.2811L6.834 12.341V12.036H6.584ZM6.584 9.384V9.134H6.334V9.384H6.584ZM3.944 16.92L4.13526 16.7589L4.13214 16.7554L3.944 16.92ZM5.672 17.208L5.73427 17.4502L5.73891 17.4489L5.672 17.208ZM6.344 16.98L6.44659 17.208L6.344 16.98ZM6.584 16.872L6.68659 17.1L6.834 17.0336V16.872H6.584ZM6.584 12.804H6.834V12.5965L6.63007 12.5583L6.584 12.804ZM3.884 13.248L4.09601 13.3805L4.09721 13.3785L3.884 13.248ZM7.222 9.384V18H7.722V9.384H7.222ZM7.472 17.75H6.584V18.25H7.472V17.75ZM6.834 18V17.592H6.334V18H6.834ZM6.45997 17.3749C5.87482 17.7093 5.30916 17.87 4.76 17.87V18.37C5.41084 18.37 6.06118 18.1787 6.70803 17.8091L6.45997 17.3749ZM4.76 17.87C4.46009 17.87 4.20784 17.8324 3.99906 17.7628L3.84094 18.2372C4.11216 18.3276 4.41991 18.37 4.76 18.37V17.87ZM3.99906 17.7628C3.80143 17.697 3.6098 17.5762 3.42478 17.3912L3.07122 17.7448C3.3022 17.9758 3.55857 18.143 3.84094 18.2372L3.99906 17.7628ZM3.42478 17.3912C3.06714 17.0336 2.85 16.3267 2.85 15.18H2.35C2.35 16.3533 2.56486 17.2384 3.07122 17.7448L3.42478 17.3912ZM2.85 15.18C2.85 14.0271 3.04191 13.2555 3.376 12.81L2.976 12.51C2.54209 13.0885 2.35 13.9969 2.35 15.18H2.85ZM3.37563 12.8105C3.70416 12.3747 4.25888 12.13 5.108 12.13V11.63C4.16512 11.63 3.43184 11.9053 2.97637 12.5095L3.37563 12.8105ZM5.108 12.13C5.5534 12.13 6.02887 12.1799 6.53497 12.2811L6.63303 11.7909C6.09913 11.6841 5.5906 11.63 5.108 11.63V12.13ZM6.834 12.036V9.384H6.334V12.036H6.834ZM6.584 9.634H7.472V9.134H6.584V9.634ZM3.75277 17.081C3.90023 17.2561 4.06875 17.3901 4.26139 17.465L4.44261 16.999C4.34725 16.9619 4.24377 16.8879 4.13523 16.759L3.75277 17.081ZM4.26139 17.465C4.44416 17.5361 4.66175 17.566 4.904 17.566V17.066C4.69825 17.066 4.54784 17.0399 4.44261 16.999L4.26139 17.465ZM4.904 17.566C5.1614 17.566 5.43868 17.5261 5.73426 17.4501L5.60974 16.9659C5.34532 17.0339 5.1106 17.066 4.904 17.066V17.566ZM5.73891 17.4489C6.03191 17.3675 6.26979 17.2875 6.44659 17.208L6.24141 16.752C6.09821 16.8165 5.88809 16.8885 5.60509 16.9671L5.73891 17.4489ZM6.44659 17.208L6.68659 17.1L6.48141 16.644L6.24141 16.752L6.44659 17.208ZM6.834 16.872V12.804H6.334V16.872H6.834ZM6.63007 12.5583C6.10556 12.4599 5.61397 12.41 5.156 12.41V12.91C5.57803 12.91 6.03844 12.9561 6.53793 13.0497L6.63007 12.5583ZM5.156 12.41C4.4927 12.41 3.97064 12.6277 3.67079 13.1175L4.09721 13.3785C4.27736 13.0843 4.6033 12.91 5.156 12.91V12.41ZM3.672 13.1155C3.39428 13.5599 3.274 14.2176 3.274 15.048H3.774C3.774 14.2464 3.89372 13.7041 4.096 13.3805L3.672 13.1155ZM3.274 15.048C3.274 15.5229 3.30967 15.9307 3.38506 16.2667C3.45996 16.6006 3.57796 16.8813 3.75586 17.0846L4.13214 16.7554C4.03004 16.6387 3.93804 16.4474 3.87294 16.1573C3.80833 15.8693 3.774 15.5011 3.774 15.048H3.274ZM10.1396 12.612L10.3345 12.7686L10.1396 12.612ZM14.0996 12.612L13.9031 12.7666L13.9047 12.7686L14.0996 12.612ZM14.1356 17.376L14.3363 17.525L14.1356 17.376ZM10.1036 17.376L9.90279 17.525L10.1036 17.376ZM10.7876 16.812L10.5723 16.9392L10.5745 16.9428L10.7876 16.812ZM13.4516 16.824L13.6655 16.9534L13.6668 16.9512L13.4516 16.824ZM13.4156 13.164L13.2098 13.3061L13.2115 13.3084L13.4156 13.164ZM10.8236 13.164L10.6201 13.0187L10.6195 13.0196L10.8236 13.164ZM9.80156 14.988C9.80156 13.9105 9.99641 13.1894 10.3345 12.7686L9.94466 12.4554C9.49872 13.0106 9.30156 13.8735 9.30156 14.988H9.80156ZM10.3345 12.7686C10.6596 12.3638 11.2297 12.13 12.1196 12.13V11.63C11.1534 11.63 10.4035 11.8842 9.94466 12.4554L10.3345 12.7686ZM12.1196 12.13C13.0188 12.13 13.5866 12.3644 13.9031 12.7666L14.296 12.4574C13.8445 11.8836 13.0923 11.63 12.1196 11.63V12.13ZM13.9047 12.7686C14.2427 13.1894 14.4376 13.9105 14.4376 14.988H14.9376C14.9376 13.8735 14.7404 13.0106 14.2945 12.4554L13.9047 12.7686ZM14.4376 14.988C14.4376 16.0671 14.2543 16.7964 13.9348 17.227L14.3363 17.525C14.7528 16.9636 14.9376 16.1009 14.9376 14.988H14.4376ZM13.9348 17.227C13.6361 17.6296 13.0631 17.87 12.1196 17.87V18.37C13.128 18.37 13.899 18.1144 14.3363 17.525L13.9348 17.227ZM12.1196 17.87C11.176 17.87 10.603 17.6296 10.3043 17.227L9.90279 17.525C10.3401 18.1144 11.1111 18.37 12.1196 18.37V17.87ZM10.3043 17.227C9.98484 16.7964 9.80156 16.0671 9.80156 14.988H9.30156C9.30156 16.1009 9.48628 16.9636 9.90279 17.525L10.3043 17.227ZM10.2256 14.976C10.2256 15.8526 10.3274 16.5247 10.5723 16.9392L11.0028 16.6848C10.8317 16.3953 10.7256 15.8434 10.7256 14.976H10.2256ZM10.5745 16.9428C10.8593 17.4068 11.4172 17.59 12.1196 17.59V17.09C11.4779 17.09 11.1479 16.9212 11.0006 16.6812L10.5745 16.9428ZM12.1196 17.59C12.8252 17.59 13.3875 17.4132 13.6655 16.9534L13.2376 16.6946C13.0997 16.9228 12.7739 17.09 12.1196 17.09V17.59ZM13.6668 16.9512C13.9118 16.5365 14.0136 15.8601 14.0136 14.976H13.5136C13.5136 15.8519 13.4073 16.4075 13.2363 16.6968L13.6668 16.9512ZM14.0136 14.976C14.0136 14.5263 13.984 14.1384 13.9221 13.8158C13.8606 13.4956 13.7642 13.224 13.6197 13.0196L13.2115 13.3084C13.2989 13.432 13.3765 13.6264 13.431 13.9102C13.4851 14.1916 13.5136 14.5457 13.5136 14.976H14.0136ZM13.6213 13.022C13.3212 12.5873 12.787 12.41 12.1196 12.41V12.91C12.7161 12.91 13.0459 13.0687 13.2098 13.306L13.6213 13.022ZM12.1196 12.41C11.4578 12.41 10.9275 12.5884 10.6201 13.0187L11.027 13.3093C11.1997 13.0676 11.5333 12.91 12.1196 12.91V12.41ZM10.6195 13.0196C10.4749 13.224 10.3785 13.4956 10.317 13.8158C10.2551 14.1384 10.2256 14.5263 10.2256 14.976H10.7256C10.7256 14.5457 10.754 14.1916 10.8081 13.9102C10.8626 13.6264 10.9402 13.432 11.0277 13.3084L10.6195 13.0196ZM20.3434 12.024L20.3058 12.2713L20.3124 12.2721L20.3434 12.024ZM20.6314 12.06L20.8811 12.0723L20.8925 11.8407L20.6624 11.8119L20.6314 12.06ZM20.5954 12.792L20.5675 13.0404L20.832 13.0702L20.8451 12.8043L20.5954 12.792ZM17.7874 13.176L17.588 13.0252L17.5874 13.026L17.7874 13.176ZM17.7634 16.8L17.5539 16.9364L17.5561 16.9398L17.7634 16.8ZM19.1914 17.316V17.566H19.2009L19.2104 17.5653L19.1914 17.316ZM20.6074 17.208L20.8571 17.1959L20.8447 16.9392L20.5884 16.9587L20.6074 17.208ZM20.6434 17.952L20.6806 18.1992L20.904 18.1656L20.8931 17.9399L20.6434 17.952ZM17.0314 17.4L16.8298 17.5478L16.8314 17.55L17.0314 17.4ZM17.0794 12.576L17.2706 12.737L17.272 12.7354L17.0794 12.576ZM18.9994 12.13C19.2425 12.13 19.6738 12.1752 20.3059 12.2712L20.381 11.7768C19.749 11.6808 19.2843 11.63 18.9994 11.63V12.13ZM20.3124 12.2721L20.6004 12.3081L20.6624 11.8119L20.3744 11.7759L20.3124 12.2721ZM20.3817 12.0477L20.3457 12.7797L20.8451 12.8043L20.8811 12.0723L20.3817 12.0477ZM20.6234 12.5436C19.9819 12.4714 19.4983 12.434 19.1794 12.434V12.934C19.4686 12.934 19.9289 12.9686 20.5675 13.0404L20.6234 12.5436ZM19.1794 12.434C18.4719 12.434 17.9072 12.603 17.588 13.0252L17.9868 13.3268C18.1636 13.093 18.5269 12.934 19.1794 12.934V12.434ZM17.5874 13.026C17.4363 13.2275 17.3361 13.4979 17.2723 13.817C17.208 14.1384 17.1774 14.526 17.1774 14.976H17.6774C17.6774 14.546 17.7068 14.1936 17.7626 13.915C17.8187 13.6341 17.8985 13.4445 17.9874 13.326L17.5874 13.026ZM17.1774 14.976C17.1774 15.8529 17.2869 16.5264 17.5539 16.9364L17.9729 16.6636C17.7919 16.3856 17.6774 15.8431 17.6774 14.976H17.1774ZM17.5561 16.9398C17.8605 17.3911 18.4489 17.566 19.1914 17.566V17.066C18.494 17.066 18.1303 16.8969 17.9707 16.6602L17.5561 16.9398ZM19.2104 17.5653L20.6264 17.4573L20.5884 16.9587L19.1724 17.0667L19.2104 17.5653ZM20.3577 17.2201L20.3937 17.9641L20.8931 17.9399L20.8571 17.1959L20.3577 17.2201ZM20.6062 17.7048C19.8646 17.8164 19.3238 17.87 18.9754 17.87V18.37C19.363 18.37 19.9342 18.3116 20.6806 18.1992L20.6062 17.7048ZM18.9754 17.87C18.0732 17.87 17.5225 17.6382 17.2314 17.25L16.8314 17.55C17.2603 18.1218 18.0057 18.37 18.9754 18.37V17.87ZM17.233 17.2522C16.9303 16.8393 16.7534 16.1001 16.7534 14.976H16.2534C16.2534 16.1239 16.4285 17.0007 16.8298 17.5478L17.233 17.2522ZM16.7534 14.976C16.7534 13.8441 16.9466 13.1218 17.2706 12.737L16.8882 12.415C16.4442 12.9422 16.2534 13.8199 16.2534 14.976H16.7534ZM17.272 12.7354C17.5891 12.3523 18.1408 12.13 18.9994 12.13V11.63C18.0661 11.63 17.3378 11.8717 16.8868 12.4166L17.272 12.7354Z" fill="#2CDE85"/>
</g>
<defs>
<clipPath id="clip0_13_907">
<rect width="24" height="24" fill="white"/>
</clipPath>
</defs>
</svg>
