<svg width="24" height="24" viewBox="0 0 24 24" fill="none" xmlns="http://www.w3.org/2000/svg">
<g clip-path="url(#clip0_13_863)">
<path d="M0 24V0H18L24 6V24H0Z" fill="#2CDE85"/>
<path d="M5.856 17.12C5.048 17.12 4.468 16.884 4.116 16.412C3.772 15.94 3.6 15.14 3.6 14.012C3.6 12.884 3.808 12.08 4.224 11.6C4.64 11.12 5.376 10.88 6.432 10.88L8.436 11V19.664H7.548V16.724C6.988 16.988 6.424 17.12 5.856 17.12ZM6.444 11.66C5.692 11.66 5.18 11.848 4.908 12.224C4.644 12.6 4.512 13.2 4.512 14.024C4.512 14.84 4.62 15.428 4.836 15.788C5.06 16.14 5.432 16.316 5.952 16.316C6.416 16.316 6.876 16.228 7.332 16.052L7.548 15.968V11.732C7.052 11.684 6.684 11.66 6.444 11.66ZM10.9004 17V11H11.7884V11.816C12.4844 11.336 13.2164 11.02 13.9844 10.868V11.78C13.6484 11.844 13.2964 11.944 12.9284 12.08C12.5684 12.216 12.2924 12.336 12.1004 12.44L11.8004 12.596V17H10.9004ZM17.8957 10.88C18.1597 10.88 18.6077 10.928 19.2397 11.024L19.5277 11.06L19.4917 11.792C18.8517 11.72 18.3797 11.684 18.0757 11.684C17.3957 11.684 16.9317 11.848 16.6837 12.176C16.4437 12.496 16.3237 13.096 16.3237 13.976C16.3237 14.848 16.4357 15.456 16.6597 15.8C16.8917 16.144 17.3677 16.316 18.0877 16.316L19.5037 16.208L19.5397 16.952C18.7957 17.064 18.2397 17.12 17.8717 17.12C16.9357 17.12 16.2877 16.88 15.9277 16.4C15.5757 15.92 15.3997 15.112 15.3997 13.976C15.3997 12.832 15.5917 12.032 15.9757 11.576C16.3597 11.112 16.9997 10.88 17.8957 10.88Z" fill="#00414A"/>
<path d="M4.116 16.412L3.91395 16.5593L3.91559 16.5615L4.116 16.412ZM4.224 11.6L4.41292 11.7637L4.224 11.6ZM6.432 10.88L6.44694 10.6304L6.43948 10.63H6.432V10.88ZM8.436 11H8.686V10.7645L8.45094 10.7504L8.436 11ZM8.436 19.664V19.914H8.686V19.664H8.436ZM7.548 19.664H7.298V19.914H7.548V19.664ZM7.548 16.724H7.798V16.3298L7.4414 16.4979L7.548 16.724ZM4.908 12.224L4.70542 12.0775L4.7034 12.0803L4.908 12.224ZM4.836 15.788L4.62155 15.9167L4.62508 15.9222L4.836 15.788ZM7.332 16.052L7.42202 16.2852L7.42261 16.285L7.332 16.052ZM7.548 15.968L7.63861 16.201L7.798 16.139V15.968H7.548ZM7.548 11.732H7.798V11.505L7.57208 11.4832L7.548 11.732ZM5.856 16.87C5.09536 16.87 4.60509 16.6496 4.31641 16.2625L3.91559 16.5615C4.33091 17.1184 5.00064 17.37 5.856 17.37V16.87ZM4.31804 16.2648C4.02309 15.8601 3.85 15.1289 3.85 14.012H3.35C3.35 15.1511 3.52091 16.0199 3.91396 16.5592L4.31804 16.2648ZM3.85 14.012C3.85 12.9021 4.05711 12.1743 4.41292 11.7637L4.03508 11.4363C3.55889 11.9857 3.35 12.8659 3.35 14.012H3.85ZM4.41292 11.7637C4.7577 11.3659 5.402 11.13 6.432 11.13V10.63C5.35 10.63 4.5223 10.8741 4.03508 11.4363L4.41292 11.7637ZM6.41706 11.1296L8.42106 11.2496L8.45094 10.7504L6.44694 10.6304L6.41706 11.1296ZM8.186 11V19.664H8.686V11H8.186ZM8.436 19.414H7.548V19.914H8.436V19.414ZM7.798 19.664V16.724H7.298V19.664H7.798ZM7.4414 16.4979C6.91169 16.7476 6.38392 16.87 5.856 16.87V17.37C6.46408 17.37 7.06431 17.2284 7.6546 16.9501L7.4414 16.4979ZM6.444 11.41C5.66204 11.41 5.04769 11.6044 4.70544 12.0775L5.11056 12.3705C5.31231 12.0916 5.72196 11.91 6.444 11.91V11.41ZM4.7034 12.0803C4.39444 12.5204 4.262 13.1843 4.262 14.024H4.762C4.762 13.2157 4.89356 12.6796 5.1126 12.3677L4.7034 12.0803ZM4.262 14.024C4.262 14.8498 4.36909 15.4957 4.62163 15.9166L5.05037 15.6594C4.87091 15.3603 4.762 14.8302 4.762 14.024H4.262ZM4.62508 15.9222C4.90657 16.3646 5.37062 16.566 5.952 16.566V16.066C5.49338 16.066 5.21343 15.9154 5.04692 15.6538L4.62508 15.9222ZM5.952 16.566C6.4484 16.566 6.93885 16.4717 7.42202 16.2852L7.24198 15.8188C6.81315 15.9843 6.3836 16.066 5.952 16.066V16.566ZM7.42261 16.285L7.63861 16.201L7.45739 15.735L7.24139 15.819L7.42261 16.285ZM7.798 15.968V11.732H7.298V15.968H7.798ZM7.57208 11.4832C7.07467 11.435 6.69669 11.41 6.444 11.41V11.91C6.67131 11.91 7.02933 11.933 7.52392 11.9808L7.57208 11.4832ZM10.9004 17H10.6504V17.25H10.9004V17ZM10.9004 11V10.75H10.6504V11H10.9004ZM11.7884 11H12.0384V10.75H11.7884V11ZM11.7884 11.816H11.5384V12.2921L11.9303 12.0218L11.7884 11.816ZM13.9844 10.868H14.2344V10.5637L13.9359 10.6228L13.9844 10.868ZM13.9844 11.78L14.0312 12.0256L14.2344 11.9869V11.78H13.9844ZM12.9284 12.08L12.8417 11.8455L12.8401 11.8461L12.9284 12.08ZM12.1004 12.44L12.2158 12.6618L12.2195 12.6598L12.1004 12.44ZM11.8004 12.596L11.6851 12.3742L11.5504 12.4442V12.596H11.8004ZM11.8004 17V17.25H12.0504V17H11.8004ZM11.1504 17V11H10.6504V17H11.1504ZM10.9004 11.25H11.7884V10.75H10.9004V11.25ZM11.5384 11V11.816H12.0384V11H11.5384ZM11.9303 12.0218C12.6005 11.5596 13.301 11.2581 14.0329 11.1132L13.9359 10.6228C13.1318 10.7819 12.3683 11.1124 11.6465 11.6102L11.9303 12.0218ZM13.7344 10.868V11.78H14.2344V10.868H13.7344ZM13.9376 11.5344C13.5862 11.6013 13.2209 11.7054 12.8417 11.8455L13.0151 12.3145C13.3719 12.1826 13.7106 12.0867 14.0312 12.0256L13.9376 11.5344ZM12.8401 11.8461C12.4762 11.9836 12.188 12.1082 11.9813 12.2202L12.2195 12.6598C12.3968 12.5638 12.6607 12.4484 13.0168 12.3139L12.8401 11.8461ZM11.9851 12.2182L11.6851 12.3742L11.9157 12.8178L12.2157 12.6618L11.9851 12.2182ZM11.5504 12.596V17H12.0504V12.596H11.5504ZM11.8004 16.75H10.9004V17.25H11.8004V16.75ZM19.2397 11.024L19.2021 11.2713L19.2086 11.2721L19.2397 11.024ZM19.5277 11.06L19.7774 11.0723L19.7887 10.8407L19.5587 10.8119L19.5277 11.06ZM19.4917 11.792L19.4637 12.0404L19.7283 12.0702L19.7414 11.8043L19.4917 11.792ZM16.6837 12.176L16.4842 12.0252L16.4837 12.026L16.6837 12.176ZM16.6597 15.8L16.4501 15.9364L16.4524 15.9398L16.6597 15.8ZM18.0877 16.316V16.566H18.0972L18.1067 16.5653L18.0877 16.316ZM19.5037 16.208L19.7534 16.1959L19.7409 15.9392L19.4846 15.9587L19.5037 16.208ZM19.5397 16.952L19.5769 17.1992L19.8003 17.1656L19.7894 16.9399L19.5397 16.952ZM15.9277 16.4L15.726 16.5478L15.7277 16.55L15.9277 16.4ZM15.9757 11.576L16.1669 11.737L16.1683 11.7354L15.9757 11.576ZM17.8957 11.13C18.1388 11.13 18.57 11.1752 19.2021 11.2712L19.2772 10.7768C18.6453 10.6808 18.1805 10.63 17.8957 10.63V11.13ZM19.2086 11.2721L19.4966 11.3081L19.5587 10.8119L19.2707 10.7759L19.2086 11.2721ZM19.278 11.0477L19.242 11.7797L19.7414 11.8043L19.7774 11.0723L19.278 11.0477ZM19.5196 11.5436C18.8782 11.4714 18.3945 11.434 18.0757 11.434V11.934C18.3648 11.934 18.8251 11.9686 19.4637 12.0404L19.5196 11.5436ZM18.0757 11.434C17.3682 11.434 16.8035 11.603 16.4842 12.0252L16.8831 12.3268C17.0599 12.093 17.4232 11.934 18.0757 11.934V11.434ZM16.4837 12.026C16.3325 12.2275 16.2323 12.4979 16.1685 12.817C16.1042 13.1384 16.0737 13.526 16.0737 13.976H16.5737C16.5737 13.546 16.6031 13.1936 16.6588 12.915C16.715 12.6341 16.7948 12.4445 16.8837 12.326L16.4837 12.026ZM16.0737 13.976C16.0737 14.8529 16.1832 15.5264 16.4502 15.9364L16.8692 15.6636C16.6881 15.3856 16.5737 14.8431 16.5737 13.976H16.0737ZM16.4524 15.9398C16.7567 16.3911 17.3451 16.566 18.0877 16.566V16.066C17.3902 16.066 17.0266 15.8969 16.8669 15.6602L16.4524 15.9398ZM18.1067 16.5653L19.5227 16.4573L19.4846 15.9587L18.0686 16.0667L18.1067 16.5653ZM19.2539 16.2201L19.2899 16.9641L19.7894 16.9399L19.7534 16.1959L19.2539 16.2201ZM19.5024 16.7048C18.7608 16.8164 18.2201 16.87 17.8717 16.87V17.37C18.2592 17.37 18.8305 17.3116 19.5769 17.1992L19.5024 16.7048ZM17.8717 16.87C16.9694 16.87 16.4188 16.6382 16.1277 16.25L15.7277 16.55C16.1565 17.1218 16.9019 17.37 17.8717 17.37V16.87ZM16.1293 16.2522C15.8265 15.8393 15.6497 15.1001 15.6497 13.976H15.1497C15.1497 15.1239 15.3248 16.0007 15.7261 16.5478L16.1293 16.2522ZM15.6497 13.976C15.6497 12.8441 15.8428 12.1218 16.1669 11.737L15.7844 11.415C15.3405 11.9422 15.1497 12.8199 15.1497 13.976H15.6497ZM16.1683 11.7354C16.4853 11.3523 17.037 11.13 17.8957 11.13V10.63C16.9623 10.63 16.234 10.8717 15.7831 11.4166L16.1683 11.7354Z" fill="#00414A"/>
</g>
<defs>
<clipPath id="clip0_13_863">
<rect width="24" height="24" fill="white"/>
</clipPath>
</defs>
</svg>
