<svg width="24" height="24" viewBox="0 0 24 24" fill="none" xmlns="http://www.w3.org/2000/svg">
<g clip-path="url(#clip0_13_1039)">
<path d="M0 24V0H18L24 6V24H0Z" fill="#2CDE85"/>
<path d="M4.856 17.12C4.048 17.12 3.468 16.884 3.116 16.412C2.772 15.94 2.6 15.14 2.6 14.012C2.6 12.884 2.808 12.08 3.224 11.6C3.64 11.12 4.376 10.88 5.432 10.88L7.436 11V19.664H6.548V16.724C5.988 16.988 5.424 17.12 4.856 17.12ZM5.444 11.66C4.692 11.66 4.18 11.848 3.908 12.224C3.644 12.6 3.512 13.2 3.512 14.024C3.512 14.84 3.62 15.428 3.836 15.788C4.06 16.14 4.432 16.316 4.952 16.316C5.416 16.316 5.876 16.228 6.332 16.052L6.548 15.968V11.732C6.052 11.684 5.684 11.66 5.444 11.66ZM11.6644 11.684C10.7924 11.684 10.3564 11.988 10.3564 12.596C10.3564 12.876 10.4564 13.076 10.6564 13.196C10.8564 13.308 11.3124 13.428 12.0244 13.556C12.7364 13.676 13.2404 13.848 13.5364 14.072C13.8324 14.296 13.9804 14.716 13.9804 15.332C13.9804 15.948 13.7804 16.4 13.3804 16.688C12.9884 16.976 12.4124 17.12 11.6524 17.12C11.1564 17.12 10.5724 17.064 9.90041 16.952L9.54041 16.892L9.58841 16.112C10.5004 16.248 11.1884 16.316 11.6524 16.316C12.1164 16.316 12.4684 16.244 12.7084 16.1C12.9564 15.948 13.0804 15.7 13.0804 15.356C13.0804 15.004 12.9764 14.768 12.7684 14.648C12.5604 14.52 12.1044 14.4 11.4004 14.288C10.6964 14.176 10.1964 14.012 9.90041 13.796C9.60441 13.58 9.45641 13.18 9.45641 12.596C9.45641 12.012 9.66041 11.58 10.0684 11.3C10.4844 11.02 11.0004 10.88 11.6164 10.88C12.1044 10.88 12.7164 10.936 13.4524 11.048L13.7884 11.108L13.7644 11.876C12.8764 11.748 12.1764 11.684 11.6644 11.684ZM17.8425 11.684C16.9705 11.684 16.5345 11.988 16.5345 12.596C16.5345 12.876 16.6345 13.076 16.8345 13.196C17.0345 13.308 17.4905 13.428 18.2025 13.556C18.9145 13.676 19.4185 13.848 19.7145 14.072C20.0105 14.296 20.1585 14.716 20.1585 15.332C20.1585 15.948 19.9585 16.4 19.5585 16.688C19.1665 16.976 18.5905 17.12 17.8305 17.12C17.3345 17.12 16.7505 17.064 16.0785 16.952L15.7185 16.892L15.7665 16.112C16.6785 16.248 17.3665 16.316 17.8305 16.316C18.2945 16.316 18.6465 16.244 18.8865 16.1C19.1345 15.948 19.2585 15.7 19.2585 15.356C19.2585 15.004 19.1545 14.768 18.9465 14.648C18.7385 14.52 18.2825 14.4 17.5785 14.288C16.8745 14.176 16.3745 14.012 16.0785 13.796C15.7825 13.58 15.6345 13.18 15.6345 12.596C15.6345 12.012 15.8385 11.58 16.2465 11.3C16.6625 11.02 17.1785 10.88 17.7945 10.88C18.2825 10.88 18.8945 10.936 19.6305 11.048L19.9665 11.108L19.9425 11.876C19.0545 11.748 18.3545 11.684 17.8425 11.684Z" fill="#00414A"/>
<path d="M3.116 16.412L2.91395 16.5593L2.91559 16.5615L3.116 16.412ZM3.224 11.6L3.41292 11.7637L3.224 11.6ZM5.432 10.88L5.44694 10.6304L5.43948 10.63H5.432V10.88ZM7.436 11H7.686V10.7645L7.45094 10.7504L7.436 11ZM7.436 19.664V19.914H7.686V19.664H7.436ZM6.548 19.664H6.298V19.914H6.548V19.664ZM6.548 16.724H6.798V16.3298L6.4414 16.4979L6.548 16.724ZM3.908 12.224L3.70542 12.0775L3.7034 12.0803L3.908 12.224ZM3.836 15.788L3.62155 15.9167L3.62508 15.9222L3.836 15.788ZM6.332 16.052L6.42202 16.2852L6.42261 16.285L6.332 16.052ZM6.548 15.968L6.63861 16.201L6.798 16.139V15.968H6.548ZM6.548 11.732H6.798V11.505L6.57208 11.4832L6.548 11.732ZM4.856 16.87C4.09536 16.87 3.60509 16.6496 3.31641 16.2625L2.91559 16.5615C3.33091 17.1184 4.00064 17.37 4.856 17.37V16.87ZM3.31804 16.2648C3.02309 15.8601 2.85 15.1289 2.85 14.012H2.35C2.35 15.1511 2.52091 16.0199 2.91396 16.5592L3.31804 16.2648ZM2.85 14.012C2.85 12.9021 3.05711 12.1743 3.41292 11.7637L3.03508 11.4363C2.55889 11.9857 2.35 12.8659 2.35 14.012H2.85ZM3.41292 11.7637C3.7577 11.3659 4.402 11.13 5.432 11.13V10.63C4.35 10.63 3.5223 10.8741 3.03508 11.4363L3.41292 11.7637ZM5.41706 11.1296L7.42106 11.2496L7.45094 10.7504L5.44694 10.6304L5.41706 11.1296ZM7.186 11V19.664H7.686V11H7.186ZM7.436 19.414H6.548V19.914H7.436V19.414ZM6.798 19.664V16.724H6.298V19.664H6.798ZM6.4414 16.4979C5.91169 16.7476 5.38392 16.87 4.856 16.87V17.37C5.46408 17.37 6.06431 17.2284 6.6546 16.9501L6.4414 16.4979ZM5.444 11.41C4.66204 11.41 4.04769 11.6044 3.70544 12.0775L4.11056 12.3705C4.31231 12.0916 4.72196 11.91 5.444 11.91V11.41ZM3.7034 12.0803C3.39444 12.5204 3.262 13.1843 3.262 14.024H3.762C3.762 13.2157 3.89356 12.6796 4.1126 12.3677L3.7034 12.0803ZM3.262 14.024C3.262 14.8498 3.36909 15.4957 3.62163 15.9166L4.05037 15.6594C3.87091 15.3603 3.762 14.8302 3.762 14.024H3.262ZM3.62508 15.9222C3.90657 16.3646 4.37062 16.566 4.952 16.566V16.066C4.49338 16.066 4.21343 15.9154 4.04692 15.6538L3.62508 15.9222ZM4.952 16.566C5.4484 16.566 5.93885 16.4717 6.42202 16.2852L6.24198 15.8188C5.81315 15.9843 5.3836 16.066 4.952 16.066V16.566ZM6.42261 16.285L6.63861 16.201L6.45739 15.735L6.24139 15.819L6.42261 16.285ZM6.798 15.968V11.732H6.298V15.968H6.798ZM6.57208 11.4832C6.07467 11.435 5.69669 11.41 5.444 11.41V11.91C5.67131 11.91 6.02933 11.933 6.52392 11.9808L6.57208 11.4832ZM10.6564 13.196L10.5277 13.4105L10.5343 13.4141L10.6564 13.196ZM12.0244 13.556L11.9802 13.8021L11.9829 13.8025L12.0244 13.556ZM13.5364 14.072L13.6873 13.8726L13.5364 14.072ZM13.3804 16.688L13.2343 16.4851L13.2324 16.4865L13.3804 16.688ZM9.90041 16.952L9.85931 17.1986L9.90041 16.952ZM9.54041 16.892L9.29088 16.8766L9.27704 17.1016L9.49931 17.1386L9.54041 16.892ZM9.58841 16.112L9.62528 15.8647L9.35562 15.8245L9.33888 16.0966L9.58841 16.112ZM12.7084 16.1L12.837 16.3144L12.839 16.3132L12.7084 16.1ZM12.7684 14.648L12.6373 14.861L12.6435 14.8645L12.7684 14.648ZM11.4004 14.288L11.4397 14.0411L11.4004 14.288ZM9.90041 13.796L10.0478 13.5941L9.90041 13.796ZM10.0684 11.3L9.92881 11.0926L9.92695 11.0939L10.0684 11.3ZM13.4524 11.048L13.4964 10.8018L13.49 10.8008L13.4524 11.048ZM13.7884 11.108L14.0383 11.1158L14.045 10.8999L13.8324 10.8619L13.7884 11.108ZM13.7644 11.876L13.7287 12.1234L14.0055 12.1633L14.0143 11.8838L13.7644 11.876ZM11.6644 11.434C11.207 11.434 10.8195 11.5123 10.5404 11.7069C10.2449 11.913 10.1064 12.2239 10.1064 12.596H10.6064C10.6064 12.3601 10.6859 12.215 10.8264 12.1171C10.9833 12.0077 11.2498 11.934 11.6644 11.934V11.434ZM10.1064 12.596C10.1064 12.9432 10.2363 13.2355 10.5278 13.4104L10.785 12.9816C10.6765 12.9165 10.6064 12.8088 10.6064 12.596H10.1064ZM10.5343 13.4141C10.6633 13.4864 10.8531 13.5508 11.0848 13.6118C11.3216 13.6741 11.6207 13.7374 11.9802 13.8021L12.0686 13.3099C11.7161 13.2466 11.4312 13.1859 11.212 13.1282C10.9877 13.0692 10.8495 13.0176 10.7786 12.9779L10.5343 13.4141ZM11.9829 13.8025C12.686 13.921 13.1397 14.0853 13.3855 14.2714L13.6873 13.8726C13.3411 13.6107 12.7869 13.431 12.066 13.3095L11.9829 13.8025ZM13.3855 14.2714C13.5873 14.424 13.7304 14.7431 13.7304 15.332H14.2304C14.2304 14.6889 14.0776 14.168 13.6873 13.8726L13.3855 14.2714ZM13.7304 15.332C13.7304 15.89 13.5528 16.2558 13.2343 16.4851L13.5265 16.8909C14.008 16.5442 14.2304 16.006 14.2304 15.332H13.7304ZM13.2324 16.4865C12.9014 16.7297 12.3871 16.87 11.6524 16.87V17.37C12.4377 17.37 13.0754 17.2223 13.5284 16.8895L13.2324 16.4865ZM11.6524 16.87C11.1742 16.87 10.6046 16.8159 9.94151 16.7054L9.85931 17.1986C10.5403 17.3121 11.1386 17.37 11.6524 17.37V16.87ZM9.94151 16.7054L9.58151 16.6454L9.49931 17.1386L9.85931 17.1986L9.94151 16.7054ZM9.78993 16.9074L9.83793 16.1274L9.33888 16.0966L9.29088 16.8766L9.78993 16.9074ZM9.55153 16.3593C10.4663 16.4957 11.1692 16.566 11.6524 16.566V16.066C11.2076 16.066 10.5345 16.0003 9.62528 15.8647L9.55153 16.3593ZM11.6524 16.566C12.1351 16.566 12.5404 16.4924 12.837 16.3144L12.5798 15.8856C12.3964 15.9956 12.0977 16.066 11.6524 16.066V16.566ZM12.839 16.3132C13.1758 16.1067 13.3304 15.7683 13.3304 15.356H12.8304C12.8304 15.6317 12.737 15.7893 12.5778 15.8868L12.839 16.3132ZM13.3304 15.356C13.3304 14.9603 13.2115 14.615 12.8933 14.4315L12.6435 14.8645C12.7413 14.921 12.8304 15.0477 12.8304 15.356H13.3304ZM12.8994 14.4351C12.7632 14.3512 12.568 14.2818 12.334 14.2202C12.0951 14.1573 11.7962 14.0978 11.4397 14.0411L11.3611 14.5349C11.7086 14.5902 11.9897 14.6467 12.2068 14.7038C12.4288 14.7622 12.5657 14.8168 12.6374 14.8609L12.8994 14.4351ZM11.4397 14.0411C10.7445 13.9305 10.2939 13.7736 10.0478 13.5941L9.75304 13.9979C10.0989 14.2504 10.6483 14.4215 11.3611 14.5349L11.4397 14.0411ZM10.0478 13.5941C9.84719 13.4477 9.70641 13.1483 9.70641 12.596H9.20641C9.20641 13.2117 9.36162 13.7123 9.75304 13.9979L10.0478 13.5941ZM9.70641 12.596C9.70641 12.0773 9.88275 11.7306 10.2099 11.5061L9.92695 11.0939C9.43806 11.4294 9.20641 11.9467 9.20641 12.596H9.70641ZM10.208 11.5074C10.5742 11.2609 11.0387 11.13 11.6164 11.13V10.63C10.9621 10.63 10.3946 10.7791 9.92881 11.0926L10.208 11.5074ZM11.6164 11.13C12.0871 11.13 12.6855 11.1842 13.4148 11.2952L13.49 10.8008C12.7473 10.6878 12.1217 10.63 11.6164 10.63V11.13ZM13.4085 11.2941L13.7445 11.3541L13.8324 10.8619L13.4964 10.8019L13.4085 11.2941ZM13.5385 11.1002L13.5145 11.8682L14.0143 11.8838L14.0383 11.1158L13.5385 11.1002ZM13.8001 11.6286C12.9076 11.4999 12.194 11.434 11.6644 11.434V11.934C12.1588 11.934 12.8452 11.9961 13.7287 12.1234L13.8001 11.6286ZM16.8345 13.196L16.7058 13.4105L16.7124 13.4141L16.8345 13.196ZM18.2025 13.556L18.1583 13.8021L18.161 13.8025L18.2025 13.556ZM19.7145 14.072L19.8654 13.8726L19.7145 14.072ZM19.5585 16.688L19.4124 16.4851L19.4105 16.4865L19.5585 16.688ZM16.0785 16.952L16.0374 17.1986L16.0785 16.952ZM15.7185 16.892L15.469 16.8766L15.4552 17.1016L15.6774 17.1386L15.7185 16.892ZM15.7665 16.112L15.8034 15.8647L15.5337 15.8245L15.517 16.0966L15.7665 16.112ZM18.8865 16.1L19.0152 16.3144L19.0172 16.3132L18.8865 16.1ZM18.9465 14.648L18.8155 14.861L18.8216 14.8645L18.9465 14.648ZM17.5785 14.288L17.6178 14.0411L17.5785 14.288ZM16.0785 13.796L16.2259 13.5941L16.0785 13.796ZM16.2465 11.3L16.1069 11.0926L16.1051 11.0939L16.2465 11.3ZM19.6305 11.048L19.6745 10.8018L19.6681 10.8008L19.6305 11.048ZM19.9665 11.108L20.2164 11.1158L20.2232 10.8999L20.0105 10.8619L19.9665 11.108ZM19.9425 11.876L19.9069 12.1234L20.1837 12.1633L20.1924 11.8838L19.9425 11.876ZM17.8425 11.434C17.3852 11.434 16.9976 11.5123 16.7185 11.7069C16.4231 11.913 16.2845 12.2239 16.2845 12.596H16.7845C16.7845 12.3601 16.864 12.215 17.0045 12.1171C17.1614 12.0077 17.4279 11.934 17.8425 11.934V11.434ZM16.2845 12.596C16.2845 12.9432 16.4145 13.2355 16.7059 13.4104L16.9632 12.9816C16.8546 12.9165 16.7845 12.8088 16.7845 12.596H16.2845ZM16.7124 13.4141C16.8415 13.4864 17.0312 13.5508 17.2629 13.6118C17.4997 13.6741 17.7988 13.7374 18.1583 13.8021L18.2468 13.3099C17.8942 13.2466 17.6093 13.1859 17.3902 13.1282C17.1658 13.0692 17.0276 13.0176 16.9567 12.9779L16.7124 13.4141ZM18.161 13.8025C18.8641 13.921 19.3178 14.0853 19.5637 14.2714L19.8654 13.8726C19.5193 13.6107 18.965 13.431 18.2441 13.3095L18.161 13.8025ZM19.5637 14.2714C19.7654 14.424 19.9085 14.7431 19.9085 15.332H20.4085C20.4085 14.6889 20.2557 14.168 19.8654 13.8726L19.5637 14.2714ZM19.9085 15.332C19.9085 15.89 19.7309 16.2558 19.4125 16.4851L19.7046 16.8909C20.1862 16.5442 20.4085 16.006 20.4085 15.332H19.9085ZM19.4105 16.4865C19.0795 16.7297 18.5652 16.87 17.8305 16.87V17.37C18.6158 17.37 19.2536 17.2223 19.7066 16.8895L19.4105 16.4865ZM17.8305 16.87C17.3523 16.87 16.7827 16.8159 16.1196 16.7054L16.0374 17.1986C16.7184 17.3121 17.3167 17.37 17.8305 17.37V16.87ZM16.1196 16.7054L15.7596 16.6454L15.6774 17.1386L16.0374 17.1986L16.1196 16.7054ZM15.9681 16.9074L16.0161 16.1274L15.517 16.0966L15.469 16.8766L15.9681 16.9074ZM15.7297 16.3593C16.6444 16.4957 17.3474 16.566 17.8305 16.566V16.066C17.3857 16.066 16.7126 16.0003 15.8034 15.8647L15.7297 16.3593ZM17.8305 16.566C18.3133 16.566 18.7185 16.4924 19.0152 16.3144L18.7579 15.8856C18.5745 15.9956 18.2758 16.066 17.8305 16.066V16.566ZM19.0172 16.3132C19.3539 16.1067 19.5085 15.7683 19.5085 15.356H19.0085C19.0085 15.6317 18.9151 15.7893 18.7559 15.8868L19.0172 16.3132ZM19.5085 15.356C19.5085 14.9603 19.3896 14.615 19.0715 14.4315L18.8216 14.8645C18.9195 14.921 19.0085 15.0477 19.0085 15.356H19.5085ZM19.0776 14.4351C18.9413 14.3512 18.7462 14.2818 18.5122 14.2202C18.2732 14.1573 17.9743 14.0978 17.6178 14.0411L17.5393 14.5349C17.8867 14.5902 18.1679 14.6467 18.3849 14.7038C18.6069 14.7622 18.7438 14.8168 18.8155 14.8609L19.0776 14.4351ZM17.6178 14.0411C16.9226 13.9305 16.472 13.7736 16.2259 13.5941L15.9312 13.9979C16.2771 14.2504 16.8264 14.4215 17.5393 14.5349L17.6178 14.0411ZM16.2259 13.5941C16.0253 13.4477 15.8845 13.1483 15.8845 12.596H15.3845C15.3845 13.2117 15.5397 13.7123 15.9312 13.9979L16.2259 13.5941ZM15.8845 12.596C15.8845 12.0773 16.0609 11.7306 16.388 11.5061L16.1051 11.0939C15.6162 11.4294 15.3845 11.9467 15.3845 12.596H15.8845ZM16.3861 11.5074C16.7523 11.2609 17.2168 11.13 17.7945 11.13V10.63C17.1403 10.63 16.5728 10.7791 16.1069 11.0926L16.3861 11.5074ZM17.7945 11.13C18.2652 11.13 18.8636 11.1842 19.5929 11.2952L19.6681 10.8008C18.9254 10.6878 18.2998 10.63 17.7945 10.63V11.13ZM19.5866 11.2941L19.9226 11.3541L20.0105 10.8619L19.6745 10.8019L19.5866 11.2941ZM19.7167 11.1002L19.6927 11.8682L20.1924 11.8838L20.2164 11.1158L19.7167 11.1002ZM19.9782 11.6286C19.0858 11.4999 18.3721 11.434 17.8425 11.434V11.934C18.3369 11.934 19.0233 11.9961 19.9069 12.1234L19.9782 11.6286Z" fill="#00414A"/>
</g>
<defs>
<clipPath id="clip0_13_1039">
<rect width="24" height="24" fill="white"/>
</clipPath>
</defs>
</svg>
