<svg width="24" height="24" viewBox="0 0 24 24" fill="none" xmlns="http://www.w3.org/2000/svg">
<g clip-path="url(#clip0_13_1039)">
<path d="M0 24V0H18L24 6V24H0Z" fill="#DBEB00"/>
<path d="M4.856 17.12C4.048 17.12 3.468 16.884 3.116 16.412C2.772 15.94 2.6 15.14 2.6 14.012C2.6 12.884 2.808 12.08 3.224 11.6C3.64 11.12 4.376 10.88 5.432 10.88L7.436 11V19.664H6.548V16.724C5.988 16.988 5.424 17.12 4.856 17.12ZM5.444 11.66C4.692 11.66 4.18 11.848 3.908 12.224C3.644 12.6 3.512 13.2 3.512 14.024C3.512 14.84 3.62 15.428 3.836 15.788C4.06 16.14 4.432 16.316 4.952 16.316C5.416 16.316 5.876 16.228 6.332 16.052L6.548 15.968V11.732C6.052 11.684 5.684 11.66 5.444 11.66Z" fill="#3F3F26"/>
<path d="M11.6644 11.684C10.7924 11.684 10.3564 11.988 10.3564 12.596C10.3564 12.876 10.4564 13.076 10.6564 13.196C10.8564 13.308 11.3124 13.428 12.0244 13.556C12.7364 13.676 13.2404 13.848 13.5364 14.072C13.8324 14.296 13.9804 14.716 13.9804 15.332C13.9804 15.948 13.7804 16.4 13.3804 16.688C12.9884 16.976 12.4124 17.12 11.6524 17.12C11.1564 17.12 10.5724 17.064 9.9004 16.952L9.5404 16.892L9.5884 16.112C10.5004 16.248 11.1884 16.316 11.6524 16.316C12.1164 16.316 12.4684 16.244 12.7084 16.1C12.9564 15.948 13.0804 15.7 13.0804 15.356C13.0804 15.004 12.9764 14.768 12.7684 14.648C12.5604 14.52 12.1044 14.4 11.4004 14.288C10.6964 14.176 10.1964 14.012 9.9004 13.796C9.6044 13.58 9.4564 13.18 9.4564 12.596C9.4564 12.012 9.6604 11.58 10.0684 11.3C10.4844 11.02 11.0004 10.88 11.6164 10.88C12.1044 10.88 12.7164 10.936 13.4524 11.048L13.7884 11.108L13.7644 11.876C12.8764 11.748 12.1764 11.684 11.6644 11.684Z" fill="#3F3F26"/>
<path d="M17.8425 11.684C16.9705 11.684 16.5345 11.988 16.5345 12.596C16.5345 12.876 16.6345 13.076 16.8345 13.196C17.0345 13.308 17.4905 13.428 18.2025 13.556C18.9145 13.676 19.4185 13.848 19.7145 14.072C20.0105 14.296 20.1585 14.716 20.1585 15.332C20.1585 15.948 19.9585 16.4 19.5585 16.688C19.1665 16.976 18.5905 17.12 17.8305 17.12C17.3345 17.12 16.7505 17.064 16.0785 16.952L15.7185 16.892L15.7665 16.112C16.6785 16.248 17.3665 16.316 17.8305 16.316C18.2945 16.316 18.6465 16.244 18.8865 16.1C19.1345 15.948 19.2585 15.7 19.2585 15.356C19.2585 15.004 19.1545 14.768 18.9465 14.648C18.7385 14.52 18.2825 14.4 17.5785 14.288C16.8745 14.176 16.3745 14.012 16.0785 13.796C15.7825 13.58 15.6345 13.18 15.6345 12.596C15.6345 12.012 15.8385 11.58 16.2465 11.3C16.6625 11.02 17.1785 10.88 17.7945 10.88C18.2825 10.88 18.8945 10.936 19.6305 11.048L19.9665 11.108L19.9425 11.876C19.0545 11.748 18.3545 11.684 17.8425 11.684Z" fill="#3F3F26"/>
<path d="M4.856 17.12C4.048 17.12 3.468 16.884 3.116 16.412C2.772 15.94 2.6 15.14 2.6 14.012C2.6 12.884 2.808 12.08 3.224 11.6C3.64 11.12 4.376 10.88 5.432 10.88L7.436 11V19.664H6.548V16.724C5.988 16.988 5.424 17.12 4.856 17.12ZM5.444 11.66C4.692 11.66 4.18 11.848 3.908 12.224C3.644 12.6 3.512 13.2 3.512 14.024C3.512 14.84 3.62 15.428 3.836 15.788C4.06 16.14 4.432 16.316 4.952 16.316C5.416 16.316 5.876 16.228 6.332 16.052L6.548 15.968V11.732C6.052 11.684 5.684 11.66 5.444 11.66Z" stroke="#3F3F26" stroke-width="0.5"/>
<path d="M11.6644 11.684C10.7924 11.684 10.3564 11.988 10.3564 12.596C10.3564 12.876 10.4564 13.076 10.6564 13.196C10.8564 13.308 11.3124 13.428 12.0244 13.556C12.7364 13.676 13.2404 13.848 13.5364 14.072C13.8324 14.296 13.9804 14.716 13.9804 15.332C13.9804 15.948 13.7804 16.4 13.3804 16.688C12.9884 16.976 12.4124 17.12 11.6524 17.12C11.1564 17.12 10.5724 17.064 9.9004 16.952L9.5404 16.892L9.5884 16.112C10.5004 16.248 11.1884 16.316 11.6524 16.316C12.1164 16.316 12.4684 16.244 12.7084 16.1C12.9564 15.948 13.0804 15.7 13.0804 15.356C13.0804 15.004 12.9764 14.768 12.7684 14.648C12.5604 14.52 12.1044 14.4 11.4004 14.288C10.6964 14.176 10.1964 14.012 9.9004 13.796C9.6044 13.58 9.4564 13.18 9.4564 12.596C9.4564 12.012 9.6604 11.58 10.0684 11.3C10.4844 11.02 11.0004 10.88 11.6164 10.88C12.1044 10.88 12.7164 10.936 13.4524 11.048L13.7884 11.108L13.7644 11.876C12.8764 11.748 12.1764 11.684 11.6644 11.684Z" stroke="#3F3F26" stroke-width="0.5"/>
<path d="M17.8425 11.684C16.9705 11.684 16.5345 11.988 16.5345 12.596C16.5345 12.876 16.6345 13.076 16.8345 13.196C17.0345 13.308 17.4905 13.428 18.2025 13.556C18.9145 13.676 19.4185 13.848 19.7145 14.072C20.0105 14.296 20.1585 14.716 20.1585 15.332C20.1585 15.948 19.9585 16.4 19.5585 16.688C19.1665 16.976 18.5905 17.12 17.8305 17.12C17.3345 17.12 16.7505 17.064 16.0785 16.952L15.7185 16.892L15.7665 16.112C16.6785 16.248 17.3665 16.316 17.8305 16.316C18.2945 16.316 18.6465 16.244 18.8865 16.1C19.1345 15.948 19.2585 15.7 19.2585 15.356C19.2585 15.004 19.1545 14.768 18.9465 14.648C18.7385 14.52 18.2825 14.4 17.5785 14.288C16.8745 14.176 16.3745 14.012 16.0785 13.796C15.7825 13.58 15.6345 13.18 15.6345 12.596C15.6345 12.012 15.8385 11.58 16.2465 11.3C16.6625 11.02 17.1785 10.88 17.7945 10.88C18.2825 10.88 18.8945 10.936 19.6305 11.048L19.9665 11.108L19.9425 11.876C19.0545 11.748 18.3545 11.684 17.8425 11.684Z" stroke="#3F3F26" stroke-width="0.5"/>
</g>
<defs>
<clipPath id="clip0_13_1039">
<rect width="24" height="24" fill="white"/>
</clipPath>
</defs>
</svg>
