<svg width="24" height="24" viewBox="0 0 24 24" fill="none" xmlns="http://www.w3.org/2000/svg">
<g clip-path="url(#clip0_13_929)">
<path d="M0 24V0H18L24 6V24H0Z" fill="#DBEB00"/>
<path d="M4.856 17.12C4.048 17.12 3.468 16.884 3.116 16.412C2.772 15.94 2.6 15.14 2.6 14.012C2.6 12.884 2.808 12.08 3.224 11.6C3.64 11.12 4.376 10.88 5.432 10.88L7.436 11V19.664H6.548V16.724C5.988 16.988 5.424 17.12 4.856 17.12ZM5.444 11.66C4.692 11.66 4.18 11.848 3.908 12.224C3.644 12.6 3.512 13.2 3.512 14.024C3.512 14.84 3.62 15.428 3.836 15.788C4.06 16.14 4.432 16.316 4.952 16.316C5.416 16.316 5.876 16.228 6.332 16.052L6.548 15.968V11.732C6.052 11.684 5.684 11.66 5.444 11.66Z" fill="#3F3F26"/>
<path d="M10.6804 17H9.7804V11H10.6684V11.42C11.2684 11.06 11.8524 10.88 12.4204 10.88C13.1644 10.88 13.6844 11.084 13.9804 11.492C14.2444 11.332 14.5844 11.192 15.0004 11.072C15.4244 10.944 15.7964 10.88 16.1164 10.88C16.9164 10.88 17.4524 11.096 17.7244 11.528C18.0044 11.952 18.1444 12.72 18.1444 13.832V17H17.2444V13.856C17.2444 13.024 17.1644 12.456 17.0044 12.152C16.8444 11.84 16.5044 11.684 15.9844 11.684C15.7204 11.684 15.4484 11.724 15.1684 11.804C14.8884 11.876 14.6724 11.948 14.5204 12.02L14.2924 12.128C14.3964 12.392 14.4484 12.976 14.4484 13.88V17H13.5484V13.904C13.5484 13.04 13.4684 12.456 13.3084 12.152C13.1564 11.84 12.8164 11.684 12.2884 11.684C12.0324 11.684 11.7684 11.724 11.4964 11.804C11.2324 11.876 11.0284 11.948 10.8844 12.02L10.6804 12.128V17Z" fill="#3F3F26"/>
<path d="M20.4837 17V8.384H21.3837V17H20.4837Z" fill="#3F3F26"/>
<path d="M4.856 17.12C4.048 17.12 3.468 16.884 3.116 16.412C2.772 15.94 2.6 15.14 2.6 14.012C2.6 12.884 2.808 12.08 3.224 11.6C3.64 11.12 4.376 10.88 5.432 10.88L7.436 11V19.664H6.548V16.724C5.988 16.988 5.424 17.12 4.856 17.12ZM5.444 11.66C4.692 11.66 4.18 11.848 3.908 12.224C3.644 12.6 3.512 13.2 3.512 14.024C3.512 14.84 3.62 15.428 3.836 15.788C4.06 16.14 4.432 16.316 4.952 16.316C5.416 16.316 5.876 16.228 6.332 16.052L6.548 15.968V11.732C6.052 11.684 5.684 11.66 5.444 11.66Z" stroke="#3F3F26" stroke-width="0.5"/>
<path d="M10.6804 17H9.7804V11H10.6684V11.42C11.2684 11.06 11.8524 10.88 12.4204 10.88C13.1644 10.88 13.6844 11.084 13.9804 11.492C14.2444 11.332 14.5844 11.192 15.0004 11.072C15.4244 10.944 15.7964 10.88 16.1164 10.88C16.9164 10.88 17.4524 11.096 17.7244 11.528C18.0044 11.952 18.1444 12.72 18.1444 13.832V17H17.2444V13.856C17.2444 13.024 17.1644 12.456 17.0044 12.152C16.8444 11.84 16.5044 11.684 15.9844 11.684C15.7204 11.684 15.4484 11.724 15.1684 11.804C14.8884 11.876 14.6724 11.948 14.5204 12.02L14.2924 12.128C14.3964 12.392 14.4484 12.976 14.4484 13.88V17H13.5484V13.904C13.5484 13.04 13.4684 12.456 13.3084 12.152C13.1564 11.84 12.8164 11.684 12.2884 11.684C12.0324 11.684 11.7684 11.724 11.4964 11.804C11.2324 11.876 11.0284 11.948 10.8844 12.02L10.6804 12.128V17Z" stroke="#3F3F26" stroke-width="0.5"/>
<path d="M20.4837 17V8.384H21.3837V17H20.4837Z" stroke="#3F3F26" stroke-width="0.5"/>
</g>
<defs>
<clipPath id="clip0_13_929">
<rect width="24" height="24" fill="white"/>
</clipPath>
</defs>
</svg>
