<svg width="24" height="24" viewBox="0 0 24 24" fill="none" xmlns="http://www.w3.org/2000/svg">
<g clip-path="url(#clip0_13_929)">
<path d="M0 24V0H18L24 6V24H0Z" fill="#2CDE85"/>
<path d="M4.856 17.12C4.048 17.12 3.468 16.884 3.116 16.412C2.772 15.94 2.6 15.14 2.6 14.012C2.6 12.884 2.808 12.08 3.224 11.6C3.64 11.12 4.376 10.88 5.432 10.88L7.436 11V19.664H6.548V16.724C5.988 16.988 5.424 17.12 4.856 17.12ZM5.444 11.66C4.692 11.66 4.18 11.848 3.908 12.224C3.644 12.6 3.512 13.2 3.512 14.024C3.512 14.84 3.62 15.428 3.836 15.788C4.06 16.14 4.432 16.316 4.952 16.316C5.416 16.316 5.876 16.228 6.332 16.052L6.548 15.968V11.732C6.052 11.684 5.684 11.66 5.444 11.66ZM10.6804 17H9.78041V11H10.6684V11.42C11.2684 11.06 11.8524 10.88 12.4204 10.88C13.1644 10.88 13.6844 11.084 13.9804 11.492C14.2444 11.332 14.5844 11.192 15.0004 11.072C15.4244 10.944 15.7964 10.88 16.1164 10.88C16.9164 10.88 17.4524 11.096 17.7244 11.528C18.0044 11.952 18.1444 12.72 18.1444 13.832V17H17.2444V13.856C17.2444 13.024 17.1644 12.456 17.0044 12.152C16.8444 11.84 16.5044 11.684 15.9844 11.684C15.7204 11.684 15.4484 11.724 15.1684 11.804C14.8884 11.876 14.6724 11.948 14.5204 12.02L14.2924 12.128C14.3964 12.392 14.4484 12.976 14.4484 13.88V17H13.5484V13.904C13.5484 13.04 13.4684 12.456 13.3084 12.152C13.1564 11.84 12.8164 11.684 12.2884 11.684C12.0324 11.684 11.7684 11.724 11.4964 11.804C11.2324 11.876 11.0284 11.948 10.8844 12.02L10.6804 12.128V17ZM20.4837 17V8.384H21.3837V17H20.4837Z" fill="#00414A"/>
<path d="M3.116 16.412L2.91395 16.5593L2.91559 16.5615L3.116 16.412ZM3.224 11.6L3.41292 11.7637L3.224 11.6ZM5.432 10.88L5.44694 10.6304L5.43948 10.63H5.432V10.88ZM7.436 11H7.686V10.7645L7.45094 10.7504L7.436 11ZM7.436 19.664V19.914H7.686V19.664H7.436ZM6.548 19.664H6.298V19.914H6.548V19.664ZM6.548 16.724H6.798V16.3298L6.4414 16.4979L6.548 16.724ZM3.908 12.224L3.70542 12.0775L3.7034 12.0803L3.908 12.224ZM3.836 15.788L3.62155 15.9167L3.62508 15.9222L3.836 15.788ZM6.332 16.052L6.42202 16.2852L6.42261 16.285L6.332 16.052ZM6.548 15.968L6.63861 16.201L6.798 16.139V15.968H6.548ZM6.548 11.732H6.798V11.505L6.57208 11.4832L6.548 11.732ZM4.856 16.87C4.09536 16.87 3.60509 16.6496 3.31641 16.2625L2.91559 16.5615C3.33091 17.1184 4.00064 17.37 4.856 17.37V16.87ZM3.31804 16.2648C3.02309 15.8601 2.85 15.1289 2.85 14.012H2.35C2.35 15.1511 2.52091 16.0199 2.91396 16.5592L3.31804 16.2648ZM2.85 14.012C2.85 12.9021 3.05711 12.1743 3.41292 11.7637L3.03508 11.4363C2.55889 11.9857 2.35 12.8659 2.35 14.012H2.85ZM3.41292 11.7637C3.7577 11.3659 4.402 11.13 5.432 11.13V10.63C4.35 10.63 3.5223 10.8741 3.03508 11.4363L3.41292 11.7637ZM5.41706 11.1296L7.42106 11.2496L7.45094 10.7504L5.44694 10.6304L5.41706 11.1296ZM7.186 11V19.664H7.686V11H7.186ZM7.436 19.414H6.548V19.914H7.436V19.414ZM6.798 19.664V16.724H6.298V19.664H6.798ZM6.4414 16.4979C5.91169 16.7476 5.38392 16.87 4.856 16.87V17.37C5.46408 17.37 6.06431 17.2284 6.6546 16.9501L6.4414 16.4979ZM5.444 11.41C4.66204 11.41 4.04769 11.6044 3.70544 12.0775L4.11056 12.3705C4.31231 12.0916 4.72196 11.91 5.444 11.91V11.41ZM3.7034 12.0803C3.39444 12.5204 3.262 13.1843 3.262 14.024H3.762C3.762 13.2157 3.89356 12.6796 4.1126 12.3677L3.7034 12.0803ZM3.262 14.024C3.262 14.8498 3.36909 15.4957 3.62163 15.9166L4.05037 15.6594C3.87091 15.3603 3.762 14.8302 3.762 14.024H3.262ZM3.62508 15.9222C3.90657 16.3646 4.37062 16.566 4.952 16.566V16.066C4.49338 16.066 4.21343 15.9154 4.04692 15.6538L3.62508 15.9222ZM4.952 16.566C5.4484 16.566 5.93885 16.4717 6.42202 16.2852L6.24198 15.8188C5.81315 15.9843 5.3836 16.066 4.952 16.066V16.566ZM6.42261 16.285L6.63861 16.201L6.45739 15.735L6.24139 15.819L6.42261 16.285ZM6.798 15.968V11.732H6.298V15.968H6.798ZM6.57208 11.4832C6.07467 11.435 5.69669 11.41 5.444 11.41V11.91C5.67131 11.91 6.02933 11.933 6.52392 11.9808L6.57208 11.4832ZM10.6804 17V17.25H10.9304V17H10.6804ZM9.78041 17H9.53041V17.25H9.78041V17ZM9.78041 11V10.75H9.53041V11H9.78041ZM10.6684 11H10.9184V10.75H10.6684V11ZM10.6684 11.42H10.4184V11.8615L10.797 11.6344L10.6684 11.42ZM13.9804 11.492L13.7781 11.6388L13.9132 11.8251L14.11 11.7058L13.9804 11.492ZM15.0004 11.072L15.0697 11.3122L15.0727 11.3113L15.0004 11.072ZM17.7244 11.528L17.5128 11.6612L17.5158 11.6658L17.7244 11.528ZM18.1444 17V17.25H18.3944V17H18.1444ZM17.2444 17H16.9944V17.25H17.2444V17ZM17.0044 12.152L16.7819 12.2661L16.7832 12.2684L17.0044 12.152ZM15.1684 11.804L15.2307 12.0462L15.2371 12.0444L15.1684 11.804ZM14.5204 12.02L14.4134 11.7941L14.5204 12.02ZM14.2924 12.128L14.1854 11.9021L13.9741 12.0021L14.0598 12.2196L14.2924 12.128ZM14.4484 17V17.25H14.6984V17H14.4484ZM13.5484 17H13.2984V17.25H13.5484V17ZM13.3084 12.152L13.0836 12.2615L13.0872 12.2684L13.3084 12.152ZM11.4964 11.804L11.5622 12.0452L11.5669 12.0438L11.4964 11.804ZM10.8844 12.02L10.7726 11.7963L10.7674 11.7991L10.8844 12.02ZM10.6804 12.128L10.5634 11.9071L10.4304 11.9775V12.128H10.6804ZM10.6804 16.75H9.78041V17.25H10.6804V16.75ZM10.0304 17V11H9.53041V17H10.0304ZM9.78041 11.25H10.6684V10.75H9.78041V11.25ZM10.4184 11V11.42H10.9184V11H10.4184ZM10.797 11.6344C11.3672 11.2923 11.9072 11.13 12.4204 11.13V10.63C11.7977 10.63 11.1697 10.8277 10.5398 11.2056L10.797 11.6344ZM12.4204 11.13C13.1243 11.13 13.5485 11.3223 13.7781 11.6388L14.1828 11.3452C13.8203 10.8457 13.2045 10.63 12.4204 10.63V11.13ZM14.11 11.7058C14.3493 11.5608 14.6671 11.4283 15.0697 11.3122L14.9311 10.8318C14.5017 10.9557 14.1395 11.1032 13.8508 11.2782L14.11 11.7058ZM15.0727 11.3113C15.4815 11.1879 15.8282 11.13 16.1164 11.13V10.63C15.7646 10.63 15.3673 10.7001 14.9282 10.8327L15.0727 11.3113ZM16.1164 11.13C16.8817 11.13 17.3085 11.3366 17.5128 11.6612L17.936 11.3948C17.5963 10.8554 16.9511 10.63 16.1164 10.63V11.13ZM17.5158 11.6658C17.7514 12.0226 17.8944 12.7231 17.8944 13.832H18.3944C18.3944 12.7169 18.2574 11.8814 17.933 11.3902L17.5158 11.6658ZM17.8944 13.832V17H18.3944V13.832H17.8944ZM18.1444 16.75H17.2444V17.25H18.1444V16.75ZM17.4944 17V13.856H16.9944V17H17.4944ZM17.4944 13.856C17.4944 13.433 17.4741 13.0706 17.432 12.7711C17.3903 12.4751 17.3251 12.2245 17.2256 12.0356L16.7832 12.2684C16.8438 12.3835 16.8985 12.5689 16.9368 12.8409C16.9747 13.1094 16.9944 13.447 16.9944 13.856H17.4944ZM17.2269 12.0379C17.0051 11.6054 16.5476 11.434 15.9844 11.434V11.934C16.4612 11.934 16.6837 12.0746 16.782 12.2661L17.2269 12.0379ZM15.9844 11.434C15.6949 11.434 15.3998 11.4779 15.0997 11.5636L15.2371 12.0444C15.497 11.9701 15.7459 11.934 15.9844 11.934V11.434ZM15.1061 11.5619C14.82 11.6354 14.5864 11.7121 14.4134 11.7941L14.6274 12.2459C14.7584 12.1839 14.9568 12.1165 15.2307 12.0461L15.1061 11.5619ZM14.4134 11.7941L14.1854 11.9021L14.3994 12.3539L14.6274 12.2459L14.4134 11.7941ZM14.0598 12.2196C14.0979 12.3164 14.1348 12.4983 14.1604 12.7862C14.1855 13.068 14.1984 13.4319 14.1984 13.88H14.6984C14.6984 13.4241 14.6853 13.044 14.6584 12.7418C14.6321 12.4457 14.5909 12.2036 14.525 12.0364L14.0598 12.2196ZM14.1984 13.88V17H14.6984V13.88H14.1984ZM14.4484 16.75H13.5484V17.25H14.4484V16.75ZM13.7984 17V13.904H13.2984V17H13.7984ZM13.7984 13.904C13.7984 13.4654 13.7782 13.0912 13.7361 12.7841C13.6946 12.4808 13.6295 12.2254 13.5296 12.0356L13.0872 12.2684C13.1473 12.3826 13.2023 12.5712 13.2407 12.8519C13.2787 13.1288 13.2984 13.4786 13.2984 13.904H13.7984ZM13.5332 12.0425C13.3195 11.6039 12.8564 11.434 12.2884 11.434V11.934C12.7764 11.934 12.9933 12.0761 13.0837 12.2615L13.5332 12.0425ZM12.2884 11.434C12.0061 11.434 11.7183 11.4781 11.4259 11.5642L11.5669 12.0438C11.8185 11.9699 12.0587 11.934 12.2884 11.934V11.434ZM11.4306 11.5628C11.1601 11.6366 10.938 11.7137 10.7726 11.7964L10.9962 12.2436C11.1188 12.1823 11.3047 12.1154 11.5622 12.0452L11.4306 11.5628ZM10.7674 11.7991L10.5634 11.9071L10.7974 12.3489L11.0014 12.2409L10.7674 11.7991ZM10.4304 12.128V17H10.9304V12.128H10.4304ZM20.4837 17H20.2337V17.25H20.4837V17ZM20.4837 8.384V8.134H20.2337V8.384H20.4837ZM21.3837 8.384H21.6337V8.134H21.3837V8.384ZM21.3837 17V17.25H21.6337V17H21.3837ZM20.7337 17V8.384H20.2337V17H20.7337ZM20.4837 8.634H21.3837V8.134H20.4837V8.634ZM21.1337 8.384V17H21.6337V8.384H21.1337ZM21.3837 16.75H20.4837V17.25H21.3837V16.75Z" fill="#00414A"/>
</g>
<defs>
<clipPath id="clip0_13_929">
<rect width="24" height="24" fill="white"/>
</clipPath>
</defs>
</svg>
